<svg xmlns="http://www.w3.org/2000/svg" viewBox="0 0 300 40" fill="none">
<line x1="20" y1="20" x2="99" y2="20" stroke="#5F7456" stroke-width="1.2"></line>
<line x1="201" y1="20" x2="280" y2="20" stroke="#5F7456" stroke-width="1.2"></line>
<g transform="translate(105,5) scale(0.8333333333333334)"><line x1="36.00" y1="18.00" x2="27.00" y2="9.00" stroke-width="7.56" stroke="#B18A44" stroke-linecap="butt"></line><line x1="27.00" y1="27.00" x2="9.00" y2="27.00" stroke-width="7.56" stroke="#B18A44" stroke-linecap="butt"></line><line x1="27.00" y1="27.00" x2="31.50" y2="22.50" stroke-width="7.56" stroke="#B18A44" stroke-linecap="butt"></line><line x1="9.00" y1="27.00" x2="9.00" y2="9.00" stroke-width="7.56" stroke="#B18A44" stroke-linecap="butt"></line><line x1="9.00" y1="9.00" x2="27.00" y2="9.00" stroke-width="7.56" stroke="#B18A44" stroke-linecap="butt"></line><circle cx="27.00" cy="9.00" r="3.59" fill="#B18A44"></circle><circle cx="27.00" cy="27.00" r="3.59" fill="#B18A44"></circle><circle cx="9.00" cy="27.00" r="3.59" fill="#B18A44"></circle><circle cx="9.00" cy="27.00" r="3.59" fill="#B18A44"></circle><circle cx="9.00" cy="9.00" r="3.59" fill="#B18A44"></circle><circle cx="9.00" cy="9.00" r="3.59" fill="#B18A44"></circle><circle cx="27.00" cy="9.00" r="3.59" fill="#B18A44"></circle><line x1="36.00" y1="18.00" x2="27.00" y2="9.00" stroke-width="7.56" stroke="#B18A44" stroke-linecap="butt"></line><line x1="36.00" y1="18.00" x2="45.00" y2="27.00" stroke-width="7.56" stroke="#B18A44" stroke-linecap="butt"></line><line x1="72.00" y1="18.00" x2="63.00" y2="9.00" stroke-width="7.56" stroke="#B18A44" stroke-linecap="butt"></line><line x1="63.00" y1="27.00" x2="45.00" y2="27.00" stroke-width="7.56" stroke="#B18A44" stroke-linecap="butt"></line><line x1="63.00" y1="27.00" x2="67.50" y2="22.50" stroke-width="7.56" stroke="#B18A44" stroke-linecap="butt"></line><line x1="36.00" y1="18.00" x2="45.00" y2="27.00" stroke-width="7.56" stroke="#B18A44" stroke-linecap="butt"></line><line x1="45.00" y1="9.00" x2="63.00" y2="9.00" stroke-width="7.56" stroke="#B18A44" stroke-linecap="butt"></line><line x1="45.00" y1="9.00" x2="40.50" y2="13.50" stroke-width="7.56" stroke="#B18A44" stroke-linecap="butt"></line><circle cx="63.00" cy="9.00" r="3.59" fill="#B18A44"></circle><circle cx="63.00" cy="27.00" r="3.59" fill="#B18A44"></circle><circle cx="45.00" cy="27.00" r="3.59" fill="#B18A44"></circle><circle cx="45.00" cy="27.00" r="3.59" fill="#B18A44"></circle><circle cx="45.00" cy="9.00" r="3.59" fill="#B18A44"></circle><circle cx="63.00" cy="9.00" r="3.59" fill="#B18A44"></circle><line x1="72.00" y1="18.00" x2="63.00" y2="9.00" stroke-width="7.56" stroke="#B18A44" stroke-linecap="butt"></line><line x1="72.00" y1="18.00" x2="81.00" y2="27.00" stroke-width="7.56" stroke="#B18A44" stroke-linecap="butt"></line><line x1="99.00" y1="9.00" x2="99.00" y2="27.00" stroke-width="7.56" stroke="#B18A44" stroke-linecap="butt"></line><line x1="99.00" y1="27.00" x2="81.00" y2="27.00" stroke-width="7.56" stroke="#B18A44" stroke-linecap="butt"></line><line x1="72.00" y1="18.00" x2="81.00" y2="27.00" stroke-width="7.56" stroke="#B18A44" stroke-linecap="butt"></line><line x1="81.00" y1="9.00" x2="99.00" y2="9.00" stroke-width="7.56" stroke="#B18A44" stroke-linecap="butt"></line><line x1="81.00" y1="9.00" x2="76.50" y2="13.50" stroke-width="7.56" stroke="#B18A44" stroke-linecap="butt"></line><circle cx="99.00" cy="9.00" r="3.59" fill="#B18A44"></circle><circle cx="99.00" cy="27.00" r="3.59" fill="#B18A44"></circle><circle cx="99.00" cy="27.00" r="3.59" fill="#B18A44"></circle><circle cx="81.00" cy="27.00" r="3.59" fill="#B18A44"></circle><circle cx="81.00" cy="27.00" r="3.59" fill="#B18A44"></circle><circle cx="81.00" cy="9.00" r="3.59" fill="#B18A44"></circle><circle cx="99.00" cy="9.00" r="3.59" fill="#B18A44"></circle><line x1="36.00" y1="18.00" x2="27.00" y2="9.00" stroke-width="1.53" stroke="#121110" stroke-linecap="butt"></line><line x1="27.00" y1="27.00" x2="9.00" y2="27.00" stroke-width="1.53" stroke="#121110" stroke-linecap="butt"></line><line x1="27.00" y1="27.00" x2="31.50" y2="22.50" stroke-width="1.53" stroke="#121110" stroke-linecap="butt"></line><line x1="9.00" y1="27.00" x2="9.00" y2="9.00" stroke-width="1.53" stroke="#121110" stroke-linecap="butt"></line><line x1="9.00" y1="9.00" x2="27.00" y2="9.00" stroke-width="1.53" stroke="#121110" stroke-linecap="butt"></line><circle cx="27.00" cy="9.00" r="0.77" fill="#121110"></circle><circle cx="27.00" cy="27.00" r="0.77" fill="#121110"></circle><circle cx="9.00" cy="27.00" r="0.77" fill="#121110"></circle><circle cx="9.00" cy="27.00" r="0.77" fill="#121110"></circle><circle cx="9.00" cy="9.00" r="0.77" fill="#121110"></circle><circle cx="9.00" cy="9.00" r="0.77" fill="#121110"></circle><circle cx="27.00" cy="9.00" r="0.77" fill="#121110"></circle><line x1="36.00" y1="18.00" x2="27.00" y2="9.00" stroke-width="1.53" stroke="#121110" stroke-linecap="butt"></line><line x1="36.00" y1="18.00" x2="45.00" y2="27.00" stroke-width="1.53" stroke="#121110" stroke-linecap="butt"></line><line x1="72.00" y1="18.00" x2="63.00" y2="9.00" stroke-width="1.53" stroke="#121110" stroke-linecap="butt"></line><line x1="63.00" y1="27.00" x2="45.00" y2="27.00" stroke-width="1.53" stroke="#121110" stroke-linecap="butt"></line><line x1="63.00" y1="27.00" x2="67.50" y2="22.50" stroke-width="1.53" stroke="#121110" stroke-linecap="butt"></line><line x1="36.00" y1="18.00" x2="45.00" y2="27.00" stroke-width="1.53" stroke="#121110" stroke-linecap="butt"></line><line x1="45.00" y1="9.00" x2="63.00" y2="9.00" stroke-width="1.53" stroke="#121110" stroke-linecap="butt"></line><line x1="45.00" y1="9.00" x2="40.50" y2="13.50" stroke-width="1.53" stroke="#121110" stroke-linecap="butt"></line><circle cx="63.00" cy="9.00" r="0.77" fill="#121110"></circle><circle cx="63.00" cy="27.00" r="0.77" fill="#121110"></circle><circle cx="45.00" cy="27.00" r="0.77" fill="#121110"></circle><circle cx="45.00" cy="27.00" r="0.77" fill="#121110"></circle><circle cx="45.00" cy="9.00" r="0.77" fill="#121110"></circle><circle cx="63.00" cy="9.00" r="0.77" fill="#121110"></circle><line x1="72.00" y1="18.00" x2="63.00" y2="9.00" stroke-width="1.53" stroke="#121110" stroke-linecap="butt"></line><line x1="72.00" y1="18.00" x2="81.00" y2="27.00" stroke-width="1.53" stroke="#121110" stroke-linecap="butt"></line><line x1="99.00" y1="9.00" x2="99.00" y2="27.00" stroke-width="1.53" stroke="#121110" stroke-linecap="butt"></line><line x1="99.00" y1="27.00" x2="81.00" y2="27.00" stroke-width="1.53" stroke="#121110" stroke-linecap="butt"></line><line x1="72.00" y1="18.00" x2="81.00" y2="27.00" stroke-width="1.53" stroke="#121110" stroke-linecap="butt"></line><line x1="81.00" y1="9.00" x2="99.00" y2="9.00" stroke-width="1.53" stroke="#121110" stroke-linecap="butt"></line><line x1="81.00" y1="9.00" x2="76.50" y2="13.50" stroke-width="1.53" stroke="#121110" stroke-linecap="butt"></line><circle cx="99.00" cy="9.00" r="0.77" fill="#121110"></circle><circle cx="99.00" cy="27.00" r="0.77" fill="#121110"></circle><circle cx="99.00" cy="27.00" r="0.77" fill="#121110"></circle><circle cx="81.00" cy="27.00" r="0.77" fill="#121110"></circle><circle cx="81.00" cy="27.00" r="0.77" fill="#121110"></circle><circle cx="81.00" cy="9.00" r="0.77" fill="#121110"></circle><circle cx="99.00" cy="9.00" r="0.77" fill="#121110"></circle></g>
</svg>