<svg xmlns="http://www.w3.org/2000/svg" viewBox="-14 -10 148 140" fill="none">
<line x1="30.00" y1="60.00" x2="15.00" y2="75.00" stroke-width="13.80" stroke="#B18A44" stroke-linecap="butt"></line><line x1="60.00" y1="30.00" x2="45.00" y2="15.00" stroke-width="13.80" stroke="#B18A44" stroke-linecap="butt"></line><line x1="30.00" y1="60.00" x2="45.00" y2="45.00" stroke-width="13.80" stroke="#B18A44" stroke-linecap="butt"></line><line x1="45.00" y1="45.00" x2="52.50" y2="37.50" stroke-width="13.80" stroke="#B18A44" stroke-linecap="butt"></line><line x1="15.00" y1="45.00" x2="15.00" y2="15.00" stroke-width="13.80" stroke="#B18A44" stroke-linecap="butt"></line><line x1="15.00" y1="45.00" x2="22.50" y2="52.50" stroke-width="13.80" stroke="#B18A44" stroke-linecap="butt"></line><line x1="15.00" y1="15.00" x2="45.00" y2="15.00" stroke-width="13.80" stroke="#B18A44" stroke-linecap="butt"></line><circle cx="45.00" cy="15.00" r="6.55" fill="#B18A44"></circle><circle cx="45.00" cy="45.00" r="6.55" fill="#B18A44"></circle><circle cx="15.00" cy="45.00" r="6.55" fill="#B18A44"></circle><circle cx="15.00" cy="15.00" r="6.55" fill="#B18A44"></circle><circle cx="15.00" cy="15.00" r="6.55" fill="#B18A44"></circle><circle cx="45.00" cy="15.00" r="6.55" fill="#B18A44"></circle><line x1="45.00" y1="105.00" x2="15.00" y2="105.00" stroke-width="13.80" stroke="#B18A44" stroke-linecap="butt"></line><line x1="15.00" y1="105.00" x2="15.00" y2="75.00" stroke-width="13.80" stroke="#B18A44" stroke-linecap="butt"></line><line x1="30.00" y1="60.00" x2="15.00" y2="75.00" stroke-width="13.80" stroke="#B18A44" stroke-linecap="butt"></line><circle cx="45.00" cy="105.00" r="6.55" fill="#B18A44"></circle><circle cx="15.00" cy="105.00" r="6.55" fill="#B18A44"></circle><circle cx="15.00" cy="105.00" r="6.55" fill="#B18A44"></circle><circle cx="15.00" cy="75.00" r="6.55" fill="#B18A44"></circle><circle cx="15.00" cy="75.00" r="6.55" fill="#B18A44"></circle><line x1="60.00" y1="30.00" x2="45.00" y2="15.00" stroke-width="13.80" stroke="#B18A44" stroke-linecap="butt"></line><line x1="90.00" y1="60.00" x2="75.00" y2="75.00" stroke-width="13.80" stroke="#B18A44" stroke-linecap="butt"></line><line x1="75.00" y1="75.00" x2="45.00" y2="75.00" stroke-width="13.80" stroke="#B18A44" stroke-linecap="butt"></line><line x1="45.00" y1="75.00" x2="37.50" y2="67.50" stroke-width="13.80" stroke="#B18A44" stroke-linecap="butt"></line><line x1="30.00" y1="60.00" x2="45.00" y2="45.00" stroke-width="13.80" stroke="#B18A44" stroke-linecap="butt"></line><line x1="60.00" y1="30.00" x2="75.00" y2="45.00" stroke-width="13.80" stroke="#B18A44" stroke-linecap="butt"></line><circle cx="75.00" cy="75.00" r="6.55" fill="#B18A44"></circle><circle cx="45.00" cy="75.00" r="6.55" fill="#B18A44"></circle><line x1="45.00" y1="105.00" x2="75.00" y2="105.00" stroke-width="13.80" stroke="#B18A44" stroke-linecap="butt"></line><circle cx="45.00" cy="105.00" r="6.55" fill="#B18A44"></circle><circle cx="75.00" cy="105.00" r="6.55" fill="#B18A44"></circle><line x1="105.00" y1="15.00" x2="105.00" y2="45.00" stroke-width="13.80" stroke="#B18A44" stroke-linecap="butt"></line><line x1="90.00" y1="60.00" x2="105.00" y2="45.00" stroke-width="13.80" stroke="#B18A44" stroke-linecap="butt"></line><line x1="60.00" y1="30.00" x2="75.00" y2="45.00" stroke-width="13.80" stroke="#B18A44" stroke-linecap="butt"></line><line x1="75.00" y1="45.00" x2="82.50" y2="52.50" stroke-width="13.80" stroke="#B18A44" stroke-linecap="butt"></line><line x1="75.00" y1="15.00" x2="105.00" y2="15.00" stroke-width="13.80" stroke="#B18A44" stroke-linecap="butt"></line><line x1="75.00" y1="15.00" x2="67.50" y2="22.50" stroke-width="13.80" stroke="#B18A44" stroke-linecap="butt"></line><circle cx="105.00" cy="15.00" r="6.55" fill="#B18A44"></circle><circle cx="105.00" cy="45.00" r="6.55" fill="#B18A44"></circle><circle cx="105.00" cy="45.00" r="6.55" fill="#B18A44"></circle><circle cx="75.00" cy="45.00" r="6.55" fill="#B18A44"></circle><circle cx="75.00" cy="15.00" r="6.55" fill="#B18A44"></circle><circle cx="105.00" cy="15.00" r="6.55" fill="#B18A44"></circle><line x1="105.00" y1="75.00" x2="105.00" y2="105.00" stroke-width="13.80" stroke="#B18A44" stroke-linecap="butt"></line><line x1="105.00" y1="75.00" x2="97.50" y2="67.50" stroke-width="13.80" stroke="#B18A44" stroke-linecap="butt"></line><line x1="105.00" y1="105.00" x2="75.00" y2="105.00" stroke-width="13.80" stroke="#B18A44" stroke-linecap="butt"></line><line x1="90.00" y1="60.00" x2="75.00" y2="75.00" stroke-width="13.80" stroke="#B18A44" stroke-linecap="butt"></line><circle cx="105.00" cy="75.00" r="6.55" fill="#B18A44"></circle><circle cx="105.00" cy="105.00" r="6.55" fill="#B18A44"></circle><circle cx="105.00" cy="105.00" r="6.55" fill="#B18A44"></circle><circle cx="75.00" cy="105.00" r="6.55" fill="#B18A44"></circle><circle cx="75.00" cy="75.00" r="6.55" fill="#B18A44"></circle><line x1="90.00" y1="60.00" x2="105.00" y2="45.00" stroke-width="13.80" stroke="#B18A44" stroke-linecap="butt"></line><line x1="30.00" y1="60.00" x2="15.00" y2="75.00" stroke-width="3.00" stroke="#121110" stroke-linecap="butt"></line><line x1="60.00" y1="30.00" x2="45.00" y2="15.00" stroke-width="3.00" stroke="#121110" stroke-linecap="butt"></line><line x1="30.00" y1="60.00" x2="45.00" y2="45.00" stroke-width="3.00" stroke="#121110" stroke-linecap="butt"></line><line x1="45.00" y1="45.00" x2="52.50" y2="37.50" stroke-width="3.00" stroke="#121110" stroke-linecap="butt"></line><line x1="15.00" y1="45.00" x2="15.00" y2="15.00" stroke-width="3.00" stroke="#121110" stroke-linecap="butt"></line><line x1="15.00" y1="45.00" x2="22.50" y2="52.50" stroke-width="3.00" stroke="#121110" stroke-linecap="butt"></line><line x1="15.00" y1="15.00" x2="45.00" y2="15.00" stroke-width="3.00" stroke="#121110" stroke-linecap="butt"></line><circle cx="45.00" cy="15.00" r="1.50" fill="#121110"></circle><circle cx="45.00" cy="45.00" r="1.50" fill="#121110"></circle><circle cx="15.00" cy="45.00" r="1.50" fill="#121110"></circle><circle cx="15.00" cy="15.00" r="1.50" fill="#121110"></circle><circle cx="15.00" cy="15.00" r="1.50" fill="#121110"></circle><circle cx="45.00" cy="15.00" r="1.50" fill="#121110"></circle><line x1="45.00" y1="105.00" x2="15.00" y2="105.00" stroke-width="3.00" stroke="#121110" stroke-linecap="butt"></line><line x1="15.00" y1="105.00" x2="15.00" y2="75.00" stroke-width="3.00" stroke="#121110" stroke-linecap="butt"></line><line x1="30.00" y1="60.00" x2="15.00" y2="75.00" stroke-width="3.00" stroke="#121110" stroke-linecap="butt"></line><circle cx="45.00" cy="105.00" r="1.50" fill="#121110"></circle><circle cx="15.00" cy="105.00" r="1.50" fill="#121110"></circle><circle cx="15.00" cy="105.00" r="1.50" fill="#121110"></circle><circle cx="15.00" cy="75.00" r="1.50" fill="#121110"></circle><circle cx="15.00" cy="75.00" r="1.50" fill="#121110"></circle><line x1="60.00" y1="30.00" x2="45.00" y2="15.00" stroke-width="3.00" stroke="#121110" stroke-linecap="butt"></line><line x1="90.00" y1="60.00" x2="75.00" y2="75.00" stroke-width="3.00" stroke="#121110" stroke-linecap="butt"></line><line x1="75.00" y1="75.00" x2="45.00" y2="75.00" stroke-width="3.00" stroke="#121110" stroke-linecap="butt"></line><line x1="45.00" y1="75.00" x2="37.50" y2="67.50" stroke-width="3.00" stroke="#121110" stroke-linecap="butt"></line><line x1="30.00" y1="60.00" x2="45.00" y2="45.00" stroke-width="3.00" stroke="#121110" stroke-linecap="butt"></line><line x1="60.00" y1="30.00" x2="75.00" y2="45.00" stroke-width="3.00" stroke="#121110" stroke-linecap="butt"></line><circle cx="75.00" cy="75.00" r="1.50" fill="#121110"></circle><circle cx="45.00" cy="75.00" r="1.50" fill="#121110"></circle><line x1="45.00" y1="105.00" x2="75.00" y2="105.00" stroke-width="3.00" stroke="#121110" stroke-linecap="butt"></line><circle cx="45.00" cy="105.00" r="1.50" fill="#121110"></circle><circle cx="75.00" cy="105.00" r="1.50" fill="#121110"></circle><line x1="105.00" y1="15.00" x2="105.00" y2="45.00" stroke-width="3.00" stroke="#121110" stroke-linecap="butt"></line><line x1="90.00" y1="60.00" x2="105.00" y2="45.00" stroke-width="3.00" stroke="#121110" stroke-linecap="butt"></line><line x1="60.00" y1="30.00" x2="75.00" y2="45.00" stroke-width="3.00" stroke="#121110" stroke-linecap="butt"></line><line x1="75.00" y1="45.00" x2="82.50" y2="52.50" stroke-width="3.00" stroke="#121110" stroke-linecap="butt"></line><line x1="75.00" y1="15.00" x2="105.00" y2="15.00" stroke-width="3.00" stroke="#121110" stroke-linecap="butt"></line><line x1="75.00" y1="15.00" x2="67.50" y2="22.50" stroke-width="3.00" stroke="#121110" stroke-linecap="butt"></line><circle cx="105.00" cy="15.00" r="1.50" fill="#121110"></circle><circle cx="105.00" cy="45.00" r="1.50" fill="#121110"></circle><circle cx="105.00" cy="45.00" r="1.50" fill="#121110"></circle><circle cx="75.00" cy="45.00" r="1.50" fill="#121110"></circle><circle cx="75.00" cy="15.00" r="1.50" fill="#121110"></circle><circle cx="105.00" cy="15.00" r="1.50" fill="#121110"></circle><line x1="105.00" y1="75.00" x2="105.00" y2="105.00" stroke-width="3.00" stroke="#121110" stroke-linecap="butt"></line><line x1="105.00" y1="75.00" x2="97.50" y2="67.50" stroke-width="3.00" stroke="#121110" stroke-linecap="butt"></line><line x1="105.00" y1="105.00" x2="75.00" y2="105.00" stroke-width="3.00" stroke="#121110" stroke-linecap="butt"></line><line x1="90.00" y1="60.00" x2="75.00" y2="75.00" stroke-width="3.00" stroke="#121110" stroke-linecap="butt"></line><circle cx="105.00" cy="75.00" r="1.50" fill="#121110"></circle><circle cx="105.00" cy="105.00" r="1.50" fill="#121110"></circle><circle cx="105.00" cy="105.00" r="1.50" fill="#121110"></circle><circle cx="75.00" cy="105.00" r="1.50" fill="#121110"></circle><circle cx="75.00" cy="75.00" r="1.50" fill="#121110"></circle><line x1="90.00" y1="60.00" x2="105.00" y2="45.00" stroke-width="3.00" stroke="#121110" stroke-linecap="butt"></line>
<rect x="4" y="50" width="112" height="38" fill="#121110"></rect>
<line x1="6" y1="50" x2="114" y2="50" stroke="#121110" stroke-width="10.4" stroke-linecap="butt"></line><line x1="6" y1="50" x2="114" y2="50" stroke="#B18A44" stroke-width="5.4" stroke-linecap="butt"></line><line x1="6" y1="88" x2="114" y2="88" stroke="#121110" stroke-width="10.4" stroke-linecap="butt"></line><line x1="6" y1="88" x2="114" y2="88" stroke="#B18A44" stroke-width="5.4" stroke-linecap="butt"></line>
<text x="60" y="71.5" text-anchor="middle" dominant-baseline="central" font-family="&#39;Cinzel&#39;,serif" font-weight="600" font-size="28" letter-spacing="5" fill="#CDAA61">W<tspan fill="#90A587" dx="2">&amp;</tspan><tspan dx="2">C</tspan></text>
</svg>