<svg xmlns="http://www.w3.org/2000/svg" viewBox="0 0 120 120" width="120" height="120" fill="none"><line x1="-30.0" y1="0.0" x2="-15.0" y2="-15.0" stroke-width="15.0" stroke="#B18A44" stroke-linecap="butt"></line><line x1="-15.0" y1="-15.0" x2="-7.5" y2="-22.5" stroke-width="15.0" stroke="#B18A44" stroke-linecap="butt"></line><circle cx="-15.0" cy="-15.0" r="7.1" fill="#B18A44"></circle><line x1="0.0" y1="30.0" x2="-15.0" y2="15.0" stroke-width="15.0" stroke="#B18A44" stroke-linecap="butt"></line><line x1="-15.0" y1="15.0" x2="-22.5" y2="7.5" stroke-width="15.0" stroke="#B18A44" stroke-linecap="butt"></line><line x1="-30.0" y1="60.0" x2="-15.0" y2="45.0" stroke-width="15.0" stroke="#B18A44" stroke-linecap="butt"></line><line x1="-15.0" y1="45.0" x2="-7.5" y2="37.5" stroke-width="15.0" stroke="#B18A44" stroke-linecap="butt"></line><circle cx="-15.0" cy="15.0" r="7.1" fill="#B18A44"></circle><circle cx="-15.0" cy="45.0" r="7.1" fill="#B18A44"></circle><line x1="0.0" y1="90.0" x2="-15.0" y2="75.0" stroke-width="15.0" stroke="#B18A44" stroke-linecap="butt"></line><line x1="-15.0" y1="75.0" x2="-22.5" y2="67.5" stroke-width="15.0" stroke="#B18A44" stroke-linecap="butt"></line><line x1="-30.0" y1="120.0" x2="-15.0" y2="105.0" stroke-width="15.0" stroke="#B18A44" stroke-linecap="butt"></line><line x1="-15.0" y1="105.0" x2="-7.5" y2="97.5" stroke-width="15.0" stroke="#B18A44" stroke-linecap="butt"></line><circle cx="-15.0" cy="75.0" r="7.1" fill="#B18A44"></circle><circle cx="-15.0" cy="105.0" r="7.1" fill="#B18A44"></circle><line x1="0.0" y1="150.0" x2="-15.0" y2="135.0" stroke-width="15.0" stroke="#B18A44" stroke-linecap="butt"></line><line x1="-15.0" y1="135.0" x2="-22.5" y2="127.5" stroke-width="15.0" stroke="#B18A44" stroke-linecap="butt"></line><circle cx="-15.0" cy="135.0" r="7.1" fill="#B18A44"></circle><line x1="30.0" y1="0.0" x2="15.0" y2="15.0" stroke-width="15.0" stroke="#B18A44" stroke-linecap="butt"></line><line x1="0.0" y1="30.0" x2="-15.0" y2="15.0" stroke-width="15.0" stroke="#B18A44" stroke-linecap="butt"></line><line x1="-30.0" y1="0.0" x2="-15.0" y2="-15.0" stroke-width="15.0" stroke="#B18A44" stroke-linecap="butt"></line><line x1="0.0" y1="-30.0" x2="15.0" y2="-15.0" stroke-width="15.0" stroke="#B18A44" stroke-linecap="butt"></line><line x1="30.0" y1="60.0" x2="15.0" y2="75.0" stroke-width="15.0" stroke="#B18A44" stroke-linecap="butt"></line><line x1="0.0" y1="90.0" x2="-15.0" y2="75.0" stroke-width="15.0" stroke="#B18A44" stroke-linecap="butt"></line><line x1="-30.0" y1="60.0" x2="-15.0" y2="45.0" stroke-width="15.0" stroke="#B18A44" stroke-linecap="butt"></line><line x1="0.0" y1="30.0" x2="15.0" y2="45.0" stroke-width="15.0" stroke="#B18A44" stroke-linecap="butt"></line><line x1="30.0" y1="120.0" x2="15.0" y2="135.0" stroke-width="15.0" stroke="#B18A44" stroke-linecap="butt"></line><line x1="0.0" y1="150.0" x2="-15.0" y2="135.0" stroke-width="15.0" stroke="#B18A44" stroke-linecap="butt"></line><line x1="-30.0" y1="120.0" x2="-15.0" y2="105.0" stroke-width="15.0" stroke="#B18A44" stroke-linecap="butt"></line><line x1="0.0" y1="90.0" x2="15.0" y2="105.0" stroke-width="15.0" stroke="#B18A44" stroke-linecap="butt"></line><line x1="30.0" y1="0.0" x2="45.0" y2="-15.0" stroke-width="15.0" stroke="#B18A44" stroke-linecap="butt"></line><line x1="45.0" y1="-15.0" x2="52.5" y2="-22.5" stroke-width="15.0" stroke="#B18A44" stroke-linecap="butt"></line><line x1="0.0" y1="-30.0" x2="15.0" y2="-15.0" stroke-width="15.0" stroke="#B18A44" stroke-linecap="butt"></line><line x1="15.0" y1="-15.0" x2="22.5" y2="-7.5" stroke-width="15.0" stroke="#B18A44" stroke-linecap="butt"></line><circle cx="45.0" cy="-15.0" r="7.1" fill="#B18A44"></circle><circle cx="15.0" cy="-15.0" r="7.1" fill="#B18A44"></circle><line x1="60.0" y1="30.0" x2="45.0" y2="15.0" stroke-width="15.0" stroke="#B18A44" stroke-linecap="butt"></line><line x1="45.0" y1="15.0" x2="37.5" y2="7.5" stroke-width="15.0" stroke="#B18A44" stroke-linecap="butt"></line><line x1="30.0" y1="60.0" x2="45.0" y2="45.0" stroke-width="15.0" stroke="#B18A44" stroke-linecap="butt"></line><line x1="45.0" y1="45.0" x2="52.5" y2="37.5" stroke-width="15.0" stroke="#B18A44" stroke-linecap="butt"></line><line x1="0.0" y1="30.0" x2="15.0" y2="45.0" stroke-width="15.0" stroke="#B18A44" stroke-linecap="butt"></line><line x1="15.0" y1="45.0" x2="22.5" y2="52.5" stroke-width="15.0" stroke="#B18A44" stroke-linecap="butt"></line><line x1="30.0" y1="0.0" x2="15.0" y2="15.0" stroke-width="15.0" stroke="#B18A44" stroke-linecap="butt"></line><line x1="15.0" y1="15.0" x2="7.5" y2="22.5" stroke-width="15.0" stroke="#B18A44" stroke-linecap="butt"></line><circle cx="45.0" cy="15.0" r="7.1" fill="#B18A44"></circle><circle cx="45.0" cy="45.0" r="7.1" fill="#B18A44"></circle><circle cx="15.0" cy="45.0" r="7.1" fill="#B18A44"></circle><circle cx="15.0" cy="15.0" r="7.1" fill="#B18A44"></circle><line x1="60.0" y1="90.0" x2="45.0" y2="75.0" stroke-width="15.0" stroke="#B18A44" stroke-linecap="butt"></line><line x1="45.0" y1="75.0" x2="37.5" y2="67.5" stroke-width="15.0" stroke="#B18A44" stroke-linecap="butt"></line><line x1="30.0" y1="120.0" x2="45.0" y2="105.0" stroke-width="15.0" stroke="#B18A44" stroke-linecap="butt"></line><line x1="45.0" y1="105.0" x2="52.5" y2="97.5" stroke-width="15.0" stroke="#B18A44" stroke-linecap="butt"></line><line x1="0.0" y1="90.0" x2="15.0" y2="105.0" stroke-width="15.0" stroke="#B18A44" stroke-linecap="butt"></line><line x1="15.0" y1="105.0" x2="22.5" y2="112.5" stroke-width="15.0" stroke="#B18A44" stroke-linecap="butt"></line><line x1="30.0" y1="60.0" x2="15.0" y2="75.0" stroke-width="15.0" stroke="#B18A44" stroke-linecap="butt"></line><line x1="15.0" y1="75.0" x2="7.5" y2="82.5" stroke-width="15.0" stroke="#B18A44" stroke-linecap="butt"></line><circle cx="45.0" cy="75.0" r="7.1" fill="#B18A44"></circle><circle cx="45.0" cy="105.0" r="7.1" fill="#B18A44"></circle><circle cx="15.0" cy="105.0" r="7.1" fill="#B18A44"></circle><circle cx="15.0" cy="75.0" r="7.1" fill="#B18A44"></circle><line x1="60.0" y1="150.0" x2="45.0" y2="135.0" stroke-width="15.0" stroke="#B18A44" stroke-linecap="butt"></line><line x1="45.0" y1="135.0" x2="37.5" y2="127.5" stroke-width="15.0" stroke="#B18A44" stroke-linecap="butt"></line><line x1="30.0" y1="120.0" x2="15.0" y2="135.0" stroke-width="15.0" stroke="#B18A44" stroke-linecap="butt"></line><line x1="15.0" y1="135.0" x2="7.5" y2="142.5" stroke-width="15.0" stroke="#B18A44" stroke-linecap="butt"></line><circle cx="45.0" cy="135.0" r="7.1" fill="#B18A44"></circle><circle cx="15.0" cy="135.0" r="7.1" fill="#B18A44"></circle><line x1="90.0" y1="0.0" x2="75.0" y2="15.0" stroke-width="15.0" stroke="#B18A44" stroke-linecap="butt"></line><line x1="60.0" y1="30.0" x2="45.0" y2="15.0" stroke-width="15.0" stroke="#B18A44" stroke-linecap="butt"></line><line x1="30.0" y1="0.0" x2="45.0" y2="-15.0" stroke-width="15.0" stroke="#B18A44" stroke-linecap="butt"></line><line x1="60.0" y1="-30.0" x2="75.0" y2="-15.0" stroke-width="15.0" stroke="#B18A44" stroke-linecap="butt"></line><line x1="90.0" y1="60.0" x2="75.0" y2="75.0" stroke-width="15.0" stroke="#B18A44" stroke-linecap="butt"></line><line x1="60.0" y1="90.0" x2="45.0" y2="75.0" stroke-width="15.0" stroke="#B18A44" stroke-linecap="butt"></line><line x1="30.0" y1="60.0" x2="45.0" y2="45.0" stroke-width="15.0" stroke="#B18A44" stroke-linecap="butt"></line><line x1="60.0" y1="30.0" x2="75.0" y2="45.0" stroke-width="15.0" stroke="#B18A44" stroke-linecap="butt"></line><line x1="90.0" y1="120.0" x2="75.0" y2="135.0" stroke-width="15.0" stroke="#B18A44" stroke-linecap="butt"></line><line x1="60.0" y1="150.0" x2="45.0" y2="135.0" stroke-width="15.0" stroke="#B18A44" stroke-linecap="butt"></line><line x1="30.0" y1="120.0" x2="45.0" y2="105.0" stroke-width="15.0" stroke="#B18A44" stroke-linecap="butt"></line><line x1="60.0" y1="90.0" x2="75.0" y2="105.0" stroke-width="15.0" stroke="#B18A44" stroke-linecap="butt"></line><line x1="90.0" y1="0.0" x2="105.0" y2="-15.0" stroke-width="15.0" stroke="#B18A44" stroke-linecap="butt"></line><line x1="105.0" y1="-15.0" x2="112.5" y2="-22.5" stroke-width="15.0" stroke="#B18A44" stroke-linecap="butt"></line><line x1="60.0" y1="-30.0" x2="75.0" y2="-15.0" stroke-width="15.0" stroke="#B18A44" stroke-linecap="butt"></line><line x1="75.0" y1="-15.0" x2="82.5" y2="-7.5" stroke-width="15.0" stroke="#B18A44" stroke-linecap="butt"></line><circle cx="105.0" cy="-15.0" r="7.1" fill="#B18A44"></circle><circle cx="75.0" cy="-15.0" r="7.1" fill="#B18A44"></circle><line x1="120.0" y1="30.0" x2="105.0" y2="15.0" stroke-width="15.0" stroke="#B18A44" stroke-linecap="butt"></line><line x1="105.0" y1="15.0" x2="97.5" y2="7.5" stroke-width="15.0" stroke="#B18A44" stroke-linecap="butt"></line><line x1="90.0" y1="60.0" x2="105.0" y2="45.0" stroke-width="15.0" stroke="#B18A44" stroke-linecap="butt"></line><line x1="105.0" y1="45.0" x2="112.5" y2="37.5" stroke-width="15.0" stroke="#B18A44" stroke-linecap="butt"></line><line x1="60.0" y1="30.0" x2="75.0" y2="45.0" stroke-width="15.0" stroke="#B18A44" stroke-linecap="butt"></line><line x1="75.0" y1="45.0" x2="82.5" y2="52.5" stroke-width="15.0" stroke="#B18A44" stroke-linecap="butt"></line><line x1="90.0" y1="0.0" x2="75.0" y2="15.0" stroke-width="15.0" stroke="#B18A44" stroke-linecap="butt"></line><line x1="75.0" y1="15.0" x2="67.5" y2="22.5" stroke-width="15.0" stroke="#B18A44" stroke-linecap="butt"></line><circle cx="105.0" cy="15.0" r="7.1" fill="#B18A44"></circle><circle cx="105.0" cy="45.0" r="7.1" fill="#B18A44"></circle><circle cx="75.0" cy="45.0" r="7.1" fill="#B18A44"></circle><circle cx="75.0" cy="15.0" r="7.1" fill="#B18A44"></circle><line x1="120.0" y1="90.0" x2="105.0" y2="75.0" stroke-width="15.0" stroke="#B18A44" stroke-linecap="butt"></line><line x1="105.0" y1="75.0" x2="97.5" y2="67.5" stroke-width="15.0" stroke="#B18A44" stroke-linecap="butt"></line><line x1="90.0" y1="120.0" x2="105.0" y2="105.0" stroke-width="15.0" stroke="#B18A44" stroke-linecap="butt"></line><line x1="105.0" y1="105.0" x2="112.5" y2="97.5" stroke-width="15.0" stroke="#B18A44" stroke-linecap="butt"></line><line x1="60.0" y1="90.0" x2="75.0" y2="105.0" stroke-width="15.0" stroke="#B18A44" stroke-linecap="butt"></line><line x1="75.0" y1="105.0" x2="82.5" y2="112.5" stroke-width="15.0" stroke="#B18A44" stroke-linecap="butt"></line><line x1="90.0" y1="60.0" x2="75.0" y2="75.0" stroke-width="15.0" stroke="#B18A44" stroke-linecap="butt"></line><line x1="75.0" y1="75.0" x2="67.5" y2="82.5" stroke-width="15.0" stroke="#B18A44" stroke-linecap="butt"></line><circle cx="105.0" cy="75.0" r="7.1" fill="#B18A44"></circle><circle cx="105.0" cy="105.0" r="7.1" fill="#B18A44"></circle><circle cx="75.0" cy="105.0" r="7.1" fill="#B18A44"></circle><circle cx="75.0" cy="75.0" r="7.1" fill="#B18A44"></circle><line x1="120.0" y1="150.0" x2="105.0" y2="135.0" stroke-width="15.0" stroke="#B18A44" stroke-linecap="butt"></line><line x1="105.0" y1="135.0" x2="97.5" y2="127.5" stroke-width="15.0" stroke="#B18A44" stroke-linecap="butt"></line><line x1="90.0" y1="120.0" x2="75.0" y2="135.0" stroke-width="15.0" stroke="#B18A44" stroke-linecap="butt"></line><line x1="75.0" y1="135.0" x2="67.5" y2="142.5" stroke-width="15.0" stroke="#B18A44" stroke-linecap="butt"></line><circle cx="105.0" cy="135.0" r="7.1" fill="#B18A44"></circle><circle cx="75.0" cy="135.0" r="7.1" fill="#B18A44"></circle><line x1="150.0" y1="0.0" x2="135.0" y2="15.0" stroke-width="15.0" stroke="#B18A44" stroke-linecap="butt"></line><line x1="120.0" y1="30.0" x2="105.0" y2="15.0" stroke-width="15.0" stroke="#B18A44" stroke-linecap="butt"></line><line x1="90.0" y1="0.0" x2="105.0" y2="-15.0" stroke-width="15.0" stroke="#B18A44" stroke-linecap="butt"></line><line x1="120.0" y1="-30.0" x2="135.0" y2="-15.0" stroke-width="15.0" stroke="#B18A44" stroke-linecap="butt"></line><line x1="150.0" y1="60.0" x2="135.0" y2="75.0" stroke-width="15.0" stroke="#B18A44" stroke-linecap="butt"></line><line x1="120.0" y1="90.0" x2="105.0" y2="75.0" stroke-width="15.0" stroke="#B18A44" stroke-linecap="butt"></line><line x1="90.0" y1="60.0" x2="105.0" y2="45.0" stroke-width="15.0" stroke="#B18A44" stroke-linecap="butt"></line><line x1="120.0" y1="30.0" x2="135.0" y2="45.0" stroke-width="15.0" stroke="#B18A44" stroke-linecap="butt"></line><line x1="150.0" y1="120.0" x2="135.0" y2="135.0" stroke-width="15.0" stroke="#B18A44" stroke-linecap="butt"></line><line x1="120.0" y1="150.0" x2="105.0" y2="135.0" stroke-width="15.0" stroke="#B18A44" stroke-linecap="butt"></line><line x1="90.0" y1="120.0" x2="105.0" y2="105.0" stroke-width="15.0" stroke="#B18A44" stroke-linecap="butt"></line><line x1="120.0" y1="90.0" x2="135.0" y2="105.0" stroke-width="15.0" stroke="#B18A44" stroke-linecap="butt"></line><line x1="120.0" y1="-30.0" x2="135.0" y2="-15.0" stroke-width="15.0" stroke="#B18A44" stroke-linecap="butt"></line><line x1="135.0" y1="-15.0" x2="142.5" y2="-7.5" stroke-width="15.0" stroke="#B18A44" stroke-linecap="butt"></line><circle cx="135.0" cy="-15.0" r="7.1" fill="#B18A44"></circle><line x1="120.0" y1="30.0" x2="135.0" y2="45.0" stroke-width="15.0" stroke="#B18A44" stroke-linecap="butt"></line><line x1="135.0" y1="45.0" x2="142.5" y2="52.5" stroke-width="15.0" stroke="#B18A44" stroke-linecap="butt"></line><line x1="150.0" y1="0.0" x2="135.0" y2="15.0" stroke-width="15.0" stroke="#B18A44" stroke-linecap="butt"></line><line x1="135.0" y1="15.0" x2="127.5" y2="22.5" stroke-width="15.0" stroke="#B18A44" stroke-linecap="butt"></line><circle cx="135.0" cy="45.0" r="7.1" fill="#B18A44"></circle><circle cx="135.0" cy="15.0" r="7.1" fill="#B18A44"></circle><line x1="120.0" y1="90.0" x2="135.0" y2="105.0" stroke-width="15.0" stroke="#B18A44" stroke-linecap="butt"></line><line x1="135.0" y1="105.0" x2="142.5" y2="112.5" stroke-width="15.0" stroke="#B18A44" stroke-linecap="butt"></line><line x1="150.0" y1="60.0" x2="135.0" y2="75.0" stroke-width="15.0" stroke="#B18A44" stroke-linecap="butt"></line><line x1="135.0" y1="75.0" x2="127.5" y2="82.5" stroke-width="15.0" stroke="#B18A44" stroke-linecap="butt"></line><circle cx="135.0" cy="105.0" r="7.1" fill="#B18A44"></circle><circle cx="135.0" cy="75.0" r="7.1" fill="#B18A44"></circle><line x1="150.0" y1="120.0" x2="135.0" y2="135.0" stroke-width="15.0" stroke="#B18A44" stroke-linecap="butt"></line><line x1="135.0" y1="135.0" x2="127.5" y2="142.5" stroke-width="15.0" stroke="#B18A44" stroke-linecap="butt"></line><circle cx="135.0" cy="135.0" r="7.1" fill="#B18A44"></circle><line x1="-30.0" y1="0.0" x2="-15.0" y2="-15.0" stroke-width="3.6" stroke="#121110" stroke-linecap="butt"></line><line x1="-15.0" y1="-15.0" x2="-7.5" y2="-22.5" stroke-width="3.6" stroke="#121110" stroke-linecap="butt"></line><circle cx="-15.0" cy="-15.0" r="1.8" fill="#121110"></circle><line x1="0.0" y1="30.0" x2="-15.0" y2="15.0" stroke-width="3.6" stroke="#121110" stroke-linecap="butt"></line><line x1="-15.0" y1="15.0" x2="-22.5" y2="7.5" stroke-width="3.6" stroke="#121110" stroke-linecap="butt"></line><line x1="-30.0" y1="60.0" x2="-15.0" y2="45.0" stroke-width="3.6" stroke="#121110" stroke-linecap="butt"></line><line x1="-15.0" y1="45.0" x2="-7.5" y2="37.5" stroke-width="3.6" stroke="#121110" stroke-linecap="butt"></line><circle cx="-15.0" cy="15.0" r="1.8" fill="#121110"></circle><circle cx="-15.0" cy="45.0" r="1.8" fill="#121110"></circle><line x1="0.0" y1="90.0" x2="-15.0" y2="75.0" stroke-width="3.6" stroke="#121110" stroke-linecap="butt"></line><line x1="-15.0" y1="75.0" x2="-22.5" y2="67.5" stroke-width="3.6" stroke="#121110" stroke-linecap="butt"></line><line x1="-30.0" y1="120.0" x2="-15.0" y2="105.0" stroke-width="3.6" stroke="#121110" stroke-linecap="butt"></line><line x1="-15.0" y1="105.0" x2="-7.5" y2="97.5" stroke-width="3.6" stroke="#121110" stroke-linecap="butt"></line><circle cx="-15.0" cy="75.0" r="1.8" fill="#121110"></circle><circle cx="-15.0" cy="105.0" r="1.8" fill="#121110"></circle><line x1="0.0" y1="150.0" x2="-15.0" y2="135.0" stroke-width="3.6" stroke="#121110" stroke-linecap="butt"></line><line x1="-15.0" y1="135.0" x2="-22.5" y2="127.5" stroke-width="3.6" stroke="#121110" stroke-linecap="butt"></line><circle cx="-15.0" cy="135.0" r="1.8" fill="#121110"></circle><line x1="30.0" y1="0.0" x2="15.0" y2="15.0" stroke-width="3.6" stroke="#121110" stroke-linecap="butt"></line><line x1="0.0" y1="30.0" x2="-15.0" y2="15.0" stroke-width="3.6" stroke="#121110" stroke-linecap="butt"></line><line x1="-30.0" y1="0.0" x2="-15.0" y2="-15.0" stroke-width="3.6" stroke="#121110" stroke-linecap="butt"></line><line x1="0.0" y1="-30.0" x2="15.0" y2="-15.0" stroke-width="3.6" stroke="#121110" stroke-linecap="butt"></line><line x1="30.0" y1="60.0" x2="15.0" y2="75.0" stroke-width="3.6" stroke="#121110" stroke-linecap="butt"></line><line x1="0.0" y1="90.0" x2="-15.0" y2="75.0" stroke-width="3.6" stroke="#121110" stroke-linecap="butt"></line><line x1="-30.0" y1="60.0" x2="-15.0" y2="45.0" stroke-width="3.6" stroke="#121110" stroke-linecap="butt"></line><line x1="0.0" y1="30.0" x2="15.0" y2="45.0" stroke-width="3.6" stroke="#121110" stroke-linecap="butt"></line><line x1="30.0" y1="120.0" x2="15.0" y2="135.0" stroke-width="3.6" stroke="#121110" stroke-linecap="butt"></line><line x1="0.0" y1="150.0" x2="-15.0" y2="135.0" stroke-width="3.6" stroke="#121110" stroke-linecap="butt"></line><line x1="-30.0" y1="120.0" x2="-15.0" y2="105.0" stroke-width="3.6" stroke="#121110" stroke-linecap="butt"></line><line x1="0.0" y1="90.0" x2="15.0" y2="105.0" stroke-width="3.6" stroke="#121110" stroke-linecap="butt"></line><line x1="30.0" y1="0.0" x2="45.0" y2="-15.0" stroke-width="3.6" stroke="#121110" stroke-linecap="butt"></line><line x1="45.0" y1="-15.0" x2="52.5" y2="-22.5" stroke-width="3.6" stroke="#121110" stroke-linecap="butt"></line><line x1="0.0" y1="-30.0" x2="15.0" y2="-15.0" stroke-width="3.6" stroke="#121110" stroke-linecap="butt"></line><line x1="15.0" y1="-15.0" x2="22.5" y2="-7.5" stroke-width="3.6" stroke="#121110" stroke-linecap="butt"></line><circle cx="45.0" cy="-15.0" r="1.8" fill="#121110"></circle><circle cx="15.0" cy="-15.0" r="1.8" fill="#121110"></circle><line x1="60.0" y1="30.0" x2="45.0" y2="15.0" stroke-width="3.6" stroke="#121110" stroke-linecap="butt"></line><line x1="45.0" y1="15.0" x2="37.5" y2="7.5" stroke-width="3.6" stroke="#121110" stroke-linecap="butt"></line><line x1="30.0" y1="60.0" x2="45.0" y2="45.0" stroke-width="3.6" stroke="#121110" stroke-linecap="butt"></line><line x1="45.0" y1="45.0" x2="52.5" y2="37.5" stroke-width="3.6" stroke="#121110" stroke-linecap="butt"></line><line x1="0.0" y1="30.0" x2="15.0" y2="45.0" stroke-width="3.6" stroke="#121110" stroke-linecap="butt"></line><line x1="15.0" y1="45.0" x2="22.5" y2="52.5" stroke-width="3.6" stroke="#121110" stroke-linecap="butt"></line><line x1="30.0" y1="0.0" x2="15.0" y2="15.0" stroke-width="3.6" stroke="#121110" stroke-linecap="butt"></line><line x1="15.0" y1="15.0" x2="7.5" y2="22.5" stroke-width="3.6" stroke="#121110" stroke-linecap="butt"></line><circle cx="45.0" cy="15.0" r="1.8" fill="#121110"></circle><circle cx="45.0" cy="45.0" r="1.8" fill="#121110"></circle><circle cx="15.0" cy="45.0" r="1.8" fill="#121110"></circle><circle cx="15.0" cy="15.0" r="1.8" fill="#121110"></circle><line x1="60.0" y1="90.0" x2="45.0" y2="75.0" stroke-width="3.6" stroke="#121110" stroke-linecap="butt"></line><line x1="45.0" y1="75.0" x2="37.5" y2="67.5" stroke-width="3.6" stroke="#121110" stroke-linecap="butt"></line><line x1="30.0" y1="120.0" x2="45.0" y2="105.0" stroke-width="3.6" stroke="#121110" stroke-linecap="butt"></line><line x1="45.0" y1="105.0" x2="52.5" y2="97.5" stroke-width="3.6" stroke="#121110" stroke-linecap="butt"></line><line x1="0.0" y1="90.0" x2="15.0" y2="105.0" stroke-width="3.6" stroke="#121110" stroke-linecap="butt"></line><line x1="15.0" y1="105.0" x2="22.5" y2="112.5" stroke-width="3.6" stroke="#121110" stroke-linecap="butt"></line><line x1="30.0" y1="60.0" x2="15.0" y2="75.0" stroke-width="3.6" stroke="#121110" stroke-linecap="butt"></line><line x1="15.0" y1="75.0" x2="7.5" y2="82.5" stroke-width="3.6" stroke="#121110" stroke-linecap="butt"></line><circle cx="45.0" cy="75.0" r="1.8" fill="#121110"></circle><circle cx="45.0" cy="105.0" r="1.8" fill="#121110"></circle><circle cx="15.0" cy="105.0" r="1.8" fill="#121110"></circle><circle cx="15.0" cy="75.0" r="1.8" fill="#121110"></circle><line x1="60.0" y1="150.0" x2="45.0" y2="135.0" stroke-width="3.6" stroke="#121110" stroke-linecap="butt"></line><line x1="45.0" y1="135.0" x2="37.5" y2="127.5" stroke-width="3.6" stroke="#121110" stroke-linecap="butt"></line><line x1="30.0" y1="120.0" x2="15.0" y2="135.0" stroke-width="3.6" stroke="#121110" stroke-linecap="butt"></line><line x1="15.0" y1="135.0" x2="7.5" y2="142.5" stroke-width="3.6" stroke="#121110" stroke-linecap="butt"></line><circle cx="45.0" cy="135.0" r="1.8" fill="#121110"></circle><circle cx="15.0" cy="135.0" r="1.8" fill="#121110"></circle><line x1="90.0" y1="0.0" x2="75.0" y2="15.0" stroke-width="3.6" stroke="#121110" stroke-linecap="butt"></line><line x1="60.0" y1="30.0" x2="45.0" y2="15.0" stroke-width="3.6" stroke="#121110" stroke-linecap="butt"></line><line x1="30.0" y1="0.0" x2="45.0" y2="-15.0" stroke-width="3.6" stroke="#121110" stroke-linecap="butt"></line><line x1="60.0" y1="-30.0" x2="75.0" y2="-15.0" stroke-width="3.6" stroke="#121110" stroke-linecap="butt"></line><line x1="90.0" y1="60.0" x2="75.0" y2="75.0" stroke-width="3.6" stroke="#121110" stroke-linecap="butt"></line><line x1="60.0" y1="90.0" x2="45.0" y2="75.0" stroke-width="3.6" stroke="#121110" stroke-linecap="butt"></line><line x1="30.0" y1="60.0" x2="45.0" y2="45.0" stroke-width="3.6" stroke="#121110" stroke-linecap="butt"></line><line x1="60.0" y1="30.0" x2="75.0" y2="45.0" stroke-width="3.6" stroke="#121110" stroke-linecap="butt"></line><line x1="90.0" y1="120.0" x2="75.0" y2="135.0" stroke-width="3.6" stroke="#121110" stroke-linecap="butt"></line><line x1="60.0" y1="150.0" x2="45.0" y2="135.0" stroke-width="3.6" stroke="#121110" stroke-linecap="butt"></line><line x1="30.0" y1="120.0" x2="45.0" y2="105.0" stroke-width="3.6" stroke="#121110" stroke-linecap="butt"></line><line x1="60.0" y1="90.0" x2="75.0" y2="105.0" stroke-width="3.6" stroke="#121110" stroke-linecap="butt"></line><line x1="90.0" y1="0.0" x2="105.0" y2="-15.0" stroke-width="3.6" stroke="#121110" stroke-linecap="butt"></line><line x1="105.0" y1="-15.0" x2="112.5" y2="-22.5" stroke-width="3.6" stroke="#121110" stroke-linecap="butt"></line><line x1="60.0" y1="-30.0" x2="75.0" y2="-15.0" stroke-width="3.6" stroke="#121110" stroke-linecap="butt"></line><line x1="75.0" y1="-15.0" x2="82.5" y2="-7.5" stroke-width="3.6" stroke="#121110" stroke-linecap="butt"></line><circle cx="105.0" cy="-15.0" r="1.8" fill="#121110"></circle><circle cx="75.0" cy="-15.0" r="1.8" fill="#121110"></circle><line x1="120.0" y1="30.0" x2="105.0" y2="15.0" stroke-width="3.6" stroke="#121110" stroke-linecap="butt"></line><line x1="105.0" y1="15.0" x2="97.5" y2="7.5" stroke-width="3.6" stroke="#121110" stroke-linecap="butt"></line><line x1="90.0" y1="60.0" x2="105.0" y2="45.0" stroke-width="3.6" stroke="#121110" stroke-linecap="butt"></line><line x1="105.0" y1="45.0" x2="112.5" y2="37.5" stroke-width="3.6" stroke="#121110" stroke-linecap="butt"></line><line x1="60.0" y1="30.0" x2="75.0" y2="45.0" stroke-width="3.6" stroke="#121110" stroke-linecap="butt"></line><line x1="75.0" y1="45.0" x2="82.5" y2="52.5" stroke-width="3.6" stroke="#121110" stroke-linecap="butt"></line><line x1="90.0" y1="0.0" x2="75.0" y2="15.0" stroke-width="3.6" stroke="#121110" stroke-linecap="butt"></line><line x1="75.0" y1="15.0" x2="67.5" y2="22.5" stroke-width="3.6" stroke="#121110" stroke-linecap="butt"></line><circle cx="105.0" cy="15.0" r="1.8" fill="#121110"></circle><circle cx="105.0" cy="45.0" r="1.8" fill="#121110"></circle><circle cx="75.0" cy="45.0" r="1.8" fill="#121110"></circle><circle cx="75.0" cy="15.0" r="1.8" fill="#121110"></circle><line x1="120.0" y1="90.0" x2="105.0" y2="75.0" stroke-width="3.6" stroke="#121110" stroke-linecap="butt"></line><line x1="105.0" y1="75.0" x2="97.5" y2="67.5" stroke-width="3.6" stroke="#121110" stroke-linecap="butt"></line><line x1="90.0" y1="120.0" x2="105.0" y2="105.0" stroke-width="3.6" stroke="#121110" stroke-linecap="butt"></line><line x1="105.0" y1="105.0" x2="112.5" y2="97.5" stroke-width="3.6" stroke="#121110" stroke-linecap="butt"></line><line x1="60.0" y1="90.0" x2="75.0" y2="105.0" stroke-width="3.6" stroke="#121110" stroke-linecap="butt"></line><line x1="75.0" y1="105.0" x2="82.5" y2="112.5" stroke-width="3.6" stroke="#121110" stroke-linecap="butt"></line><line x1="90.0" y1="60.0" x2="75.0" y2="75.0" stroke-width="3.6" stroke="#121110" stroke-linecap="butt"></line><line x1="75.0" y1="75.0" x2="67.5" y2="82.5" stroke-width="3.6" stroke="#121110" stroke-linecap="butt"></line><circle cx="105.0" cy="75.0" r="1.8" fill="#121110"></circle><circle cx="105.0" cy="105.0" r="1.8" fill="#121110"></circle><circle cx="75.0" cy="105.0" r="1.8" fill="#121110"></circle><circle cx="75.0" cy="75.0" r="1.8" fill="#121110"></circle><line x1="120.0" y1="150.0" x2="105.0" y2="135.0" stroke-width="3.6" stroke="#121110" stroke-linecap="butt"></line><line x1="105.0" y1="135.0" x2="97.5" y2="127.5" stroke-width="3.6" stroke="#121110" stroke-linecap="butt"></line><line x1="90.0" y1="120.0" x2="75.0" y2="135.0" stroke-width="3.6" stroke="#121110" stroke-linecap="butt"></line><line x1="75.0" y1="135.0" x2="67.5" y2="142.5" stroke-width="3.6" stroke="#121110" stroke-linecap="butt"></line><circle cx="105.0" cy="135.0" r="1.8" fill="#121110"></circle><circle cx="75.0" cy="135.0" r="1.8" fill="#121110"></circle><line x1="150.0" y1="0.0" x2="135.0" y2="15.0" stroke-width="3.6" stroke="#121110" stroke-linecap="butt"></line><line x1="120.0" y1="30.0" x2="105.0" y2="15.0" stroke-width="3.6" stroke="#121110" stroke-linecap="butt"></line><line x1="90.0" y1="0.0" x2="105.0" y2="-15.0" stroke-width="3.6" stroke="#121110" stroke-linecap="butt"></line><line x1="120.0" y1="-30.0" x2="135.0" y2="-15.0" stroke-width="3.6" stroke="#121110" stroke-linecap="butt"></line><line x1="150.0" y1="60.0" x2="135.0" y2="75.0" stroke-width="3.6" stroke="#121110" stroke-linecap="butt"></line><line x1="120.0" y1="90.0" x2="105.0" y2="75.0" stroke-width="3.6" stroke="#121110" stroke-linecap="butt"></line><line x1="90.0" y1="60.0" x2="105.0" y2="45.0" stroke-width="3.6" stroke="#121110" stroke-linecap="butt"></line><line x1="120.0" y1="30.0" x2="135.0" y2="45.0" stroke-width="3.6" stroke="#121110" stroke-linecap="butt"></line><line x1="150.0" y1="120.0" x2="135.0" y2="135.0" stroke-width="3.6" stroke="#121110" stroke-linecap="butt"></line><line x1="120.0" y1="150.0" x2="105.0" y2="135.0" stroke-width="3.6" stroke="#121110" stroke-linecap="butt"></line><line x1="90.0" y1="120.0" x2="105.0" y2="105.0" stroke-width="3.6" stroke="#121110" stroke-linecap="butt"></line><line x1="120.0" y1="90.0" x2="135.0" y2="105.0" stroke-width="3.6" stroke="#121110" stroke-linecap="butt"></line><line x1="120.0" y1="-30.0" x2="135.0" y2="-15.0" stroke-width="3.6" stroke="#121110" stroke-linecap="butt"></line><line x1="135.0" y1="-15.0" x2="142.5" y2="-7.5" stroke-width="3.6" stroke="#121110" stroke-linecap="butt"></line><circle cx="135.0" cy="-15.0" r="1.8" fill="#121110"></circle><line x1="120.0" y1="30.0" x2="135.0" y2="45.0" stroke-width="3.6" stroke="#121110" stroke-linecap="butt"></line><line x1="135.0" y1="45.0" x2="142.5" y2="52.5" stroke-width="3.6" stroke="#121110" stroke-linecap="butt"></line><line x1="150.0" y1="0.0" x2="135.0" y2="15.0" stroke-width="3.6" stroke="#121110" stroke-linecap="butt"></line><line x1="135.0" y1="15.0" x2="127.5" y2="22.5" stroke-width="3.6" stroke="#121110" stroke-linecap="butt"></line><circle cx="135.0" cy="45.0" r="1.8" fill="#121110"></circle><circle cx="135.0" cy="15.0" r="1.8" fill="#121110"></circle><line x1="120.0" y1="90.0" x2="135.0" y2="105.0" stroke-width="3.6" stroke="#121110" stroke-linecap="butt"></line><line x1="135.0" y1="105.0" x2="142.5" y2="112.5" stroke-width="3.6" stroke="#121110" stroke-linecap="butt"></line><line x1="150.0" y1="60.0" x2="135.0" y2="75.0" stroke-width="3.6" stroke="#121110" stroke-linecap="butt"></line><line x1="135.0" y1="75.0" x2="127.5" y2="82.5" stroke-width="3.6" stroke="#121110" stroke-linecap="butt"></line><circle cx="135.0" cy="105.0" r="1.8" fill="#121110"></circle><circle cx="135.0" cy="75.0" r="1.8" fill="#121110"></circle><line x1="150.0" y1="120.0" x2="135.0" y2="135.0" stroke-width="3.6" stroke="#121110" stroke-linecap="butt"></line><line x1="135.0" y1="135.0" x2="127.5" y2="142.5" stroke-width="3.6" stroke="#121110" stroke-linecap="butt"></line><circle cx="135.0" cy="135.0" r="1.8" fill="#121110"></circle></svg>