<svg xmlns="http://www.w3.org/2000/svg" viewBox="0 0 800 300" width="800" height="300" fill="none"><!-- Gilt & Grove rising-sun halo — generated by the knot engine (consistent two-strand braid + rays) --><defs><linearGradient id="ggArchCord" x1="0" y1="0" x2="1" y2="0"><stop offset="0" stop-color="#7E9079"/><stop offset="0.5" stop-color="#D8BC6B"/><stop offset="1" stop-color="#B0817A"/></linearGradient><linearGradient id="ggRay" x1="0" y1="1" x2="0" y2="0"><stop offset="0" stop-color="#C2A042" stop-opacity="0"/><stop offset="1" stop-color="#D8BC6B" stop-opacity="0.55"/></linearGradient></defs><g><line x1="341.20" y1="244.73" x2="211.83" y2="175.95" stroke-width="1.2" style="stroke:url(#ggRay)"/><line x1="347.76" y1="234.69" x2="232.83" y2="143.82" stroke-width="0.7" style="stroke:url(#ggRay)"/><line x1="356.01" y1="225.99" x2="259.25" y2="115.97" stroke-width="1.2" style="stroke:url(#ggRay)"/><line x1="365.70" y1="218.91" x2="290.24" y2="93.32" stroke-width="0.7" style="stroke:url(#ggRay)"/><line x1="376.49" y1="213.69" x2="324.78" y2="76.59" stroke-width="1.2" style="stroke:url(#ggRay)"/><line x1="388.05" y1="210.48" x2="361.77" y2="66.34" stroke-width="0.7" style="stroke:url(#ggRay)"/><line x1="400.00" y1="209.40" x2="400.00" y2="62.88" stroke-width="1.2" style="stroke:url(#ggRay)"/><line x1="411.95" y1="210.48" x2="438.23" y2="66.34" stroke-width="0.7" style="stroke:url(#ggRay)"/><line x1="423.51" y1="213.69" x2="475.22" y2="76.59" stroke-width="1.2" style="stroke:url(#ggRay)"/><line x1="434.30" y1="218.91" x2="509.76" y2="93.32" stroke-width="0.7" style="stroke:url(#ggRay)"/><line x1="443.99" y1="225.99" x2="540.75" y2="115.97" stroke-width="1.2" style="stroke:url(#ggRay)"/><line x1="452.24" y1="234.69" x2="567.17" y2="143.82" stroke-width="0.7" style="stroke:url(#ggRay)"/><line x1="458.80" y1="244.73" x2="588.17" y2="175.95" stroke-width="1.2" style="stroke:url(#ggRay)"/></g><path d="M191.39,200.07 L191.60,199.48 L191.82,198.90 L192.04,198.31 L192.26,197.73 L192.48,197.14 L192.70,196.56 L192.93,195.98 L193.15,195.39 L193.38,194.81 L193.61,194.23 L193.85,193.65 L194.08,193.07 L194.32,192.50 L194.56,191.92 L194.80,191.34 L195.04,190.77 L195.29,190.19 L195.53,189.62 L195.78,189.04 L196.03,188.47 L196.29,187.90 L196.54,187.33 L196.80,186.76 L197.05,186.19 L197.31,185.62 L197.58,185.05 L197.84,184.49 L198.10,183.92 L198.37,183.36 L198.64,182.79 L198.90,182.23 L199.17,181.66 L199.45,181.10 L199.72,180.54 L199.99,179.98 L200.27,179.42 L200.54,178.86 L200.82,178.30 L201.09,177.74 L201.37,177.18 L201.65,176.62 L201.93,176.06 L202.21,175.50 L202.49,174.94 L202.77,174.38 L203.05,173.82 L203.33,173.27 L203.61,172.71 L203.89,172.15 L204.17,171.59 L204.45,171.03 L204.73,170.48 L205.01,169.92 L205.30,169.36 L205.58,168.80 L205.86,168.24 L206.14,167.69 L206.43,167.13 L206.71,166.57 L207.00,166.01 L207.28,165.46 L207.57,164.90 L207.85,164.34 L208.14,163.78 L208.43,163.23 L208.72,162.67 L209.01,162.12 L209.30,161.56 L209.59,161.01 L209.89,160.45 L210.18,159.90 L210.48,159.35 L210.78,158.80 L211.09,158.25 L211.39,157.70 L211.70,157.16 L212.01,156.61 L212.33,156.07 L212.64,155.53 L212.96,154.99 L213.29,154.45 L213.61,153.91 L213.94,153.38 L214.28,152.85 L214.62,152.32 L214.96,151.80 L215.31,151.27 L215.66,150.75 L216.02,150.24 L216.38,149.72 L216.74,149.21 L217.11,148.70 L217.48,148.20 L217.86,147.70 L218.25,147.20 L218.64,146.71 L219.03,146.22 L219.43,145.74 L219.83,145.25 L220.24,144.78 L220.65,144.30 L221.07,143.83 L221.49,143.36 L221.91,142.90 L222.34,142.44 L222.78,141.98 L223.21,141.53 L223.65,141.08 L224.10,140.63 L224.55,140.19 L225.00,139.75 L225.45,139.31 L225.91,138.87 L226.36,138.44 L226.82,138.01 L227.29,137.58 L227.75,137.16 L228.21,136.73 L228.68,136.31 L229.15,135.88 L229.61,135.46 L230.08,135.04 L230.54,134.62 L231.01,134.20 L231.47,133.78 L231.94,133.36 L232.40,132.94 L232.86,132.51 L233.31,132.09 L233.77,131.66 L234.22,131.23 L234.67,130.80 L235.12,130.37 L235.56,129.94 L236.00,129.50 L236.43,129.06 L236.86,128.61 L237.29,128.16 L237.71,127.71 L238.13,127.25 L238.54,126.79 L238.95,126.33 L239.36,125.86 L239.76,125.38 L240.15,124.91 L240.54,124.42 L240.92,123.93 L241.30,123.44 L241.68,122.94 L242.05,122.44 L242.42,121.93 L242.78,121.42 L243.14,120.90 L243.50,120.37 L243.85,119.85 L244.20,119.32 L244.54,118.78 L244.88,118.24 L245.22,117.70 L245.56,117.15 L245.90,116.60 L246.23,116.05 L246.57,115.50 L246.90,114.94 L247.23,114.38 L247.57,113.82 L247.90,113.26 L248.24,112.70 L248.58,112.14 L248.92,111.59 L249.26,111.03 L249.60,110.47 L249.95,109.92 L250.30,109.37 L250.66,108.82 L251.02,108.28 L251.39,107.74 L251.76,107.21 L252.14,106.68 L252.52,106.15 L252.92,105.64 L253.31,105.13 L253.72,104.63 L254.13,104.14 L254.56,103.65 L254.99,103.18 L255.43,102.72 L255.87,102.26 L256.33,101.82 L256.80,101.38 L257.27,100.96 L257.76,100.55 L258.25,100.15 L258.76,99.76 L259.27,99.39 L259.80,99.03 L260.33,98.68 L260.87,98.34 L261.43,98.01 L261.99,97.70 L262.56,97.40 L263.14,97.12 L263.73,96.84 L264.32,96.58 L264.93,96.33 L265.54,96.09 L266.16,95.87 L266.79,95.65 L267.42,95.45 L268.06,95.26 L268.70,95.07 L269.35,94.90 L270.01,94.73 L270.67,94.58 L271.33,94.43 L272.00,94.28 L272.67,94.15 L273.34,94.02 L274.01,93.89 L274.68,93.77 L275.35,93.65 L276.03,93.54 L276.70,93.42 L277.37,93.31 L278.04,93.19 L278.71,93.08 L279.37,92.96 L280.03,92.84 L280.68,92.72 L281.33,92.59 L281.98,92.46 L282.62,92.32 L283.25,92.18 L283.88,92.02 L284.50,91.86 L285.12,91.69 L285.72,91.50 L286.32,91.31 L286.91,91.11 L287.49,90.89 L288.07,90.66 L288.63,90.41 L289.19,90.16 L289.73,89.88 L290.27,89.60 L290.80,89.30 L291.32,88.98 L291.83,88.65 L292.33,88.30 L292.83,87.93 L293.31,87.55 L293.79,87.15 L294.25,86.74 L294.71,86.31 L295.17,85.87 L295.61,85.41 L296.05,84.93 L296.48,84.44 L296.91,83.94 L297.33,83.42 L297.74,82.89 L298.15,82.35 L298.56,81.80 L298.96,81.23 L299.36,80.66 L299.75,80.07 L300.15,79.48 L300.54,78.88 L300.93,78.27 L301.32,77.66 L301.71,77.05 L302.11,76.43 L302.50,75.81 L302.90,75.19 L303.30,74.57 L303.70,73.95 L304.10,73.34 L304.51,72.73 L304.93,72.12 L305.35,71.52 L305.78,70.93 L306.21,70.35 L306.65,69.78 L307.10,69.22 L307.55,68.68 L308.02,68.15 L308.49,67.63 L308.97,67.13 L309.46,66.65 L309.96,66.18 L310.47,65.74 L310.99,65.31 L311.52,64.91 L312.06,64.53 L312.61,64.17 L313.16,63.83 L313.73,63.52 L314.31,63.23 L314.90,62.97 L315.50,62.73 L316.11,62.51 L316.73,62.32 L317.36,62.16 L318.00,62.02 L318.65,61.91 L319.30,61.82 L319.97,61.76 L320.64,61.73 L321.32,61.71 L322.01,61.72 L322.70,61.76 L323.41,61.81 L324.11,61.89 L324.82,61.99 L325.54,62.11 L326.26,62.25 L326.99,62.40 L327.72,62.57 L328.45,62.76 L329.19,62.96 L329.92,63.18 L330.66,63.41 L331.40,63.65 L332.14,63.89 L332.87,64.15 L333.61,64.41 L334.35,64.67 L335.08,64.94 L335.81,65.21 L336.54,65.47 L337.27,65.74 L337.99,66.00 L338.71,66.26 L339.42,66.51 L340.13,66.75 L340.83,66.99 L341.53,67.21 L342.22,67.42 L342.90,67.61 L343.58,67.79 L344.25,67.96 L344.92,68.10 L345.58,68.23 L346.23,68.33 L346.88,68.42 L347.51,68.48 L348.15,68.52 L348.77,68.53 L349.39,68.52 L350.00,68.49 L350.60,68.43 L351.20,68.34 L351.78,68.23 L352.37,68.08 L352.95,67.92 L353.52,67.72 L354.08,67.50 L354.64,67.25 L355.20,66.97 L355.75,66.67 L356.30,66.34 L356.84,65.98 L357.38,65.60 L357.92,65.20 L358.45,64.77 L358.98,64.33 L359.51,63.86 L360.03,63.37 L360.56,62.86 L361.08,62.33 L361.61,61.79 L362.13,61.23 L362.65,60.66 L363.18,60.08 L363.71,59.49 L364.23,58.88 L364.76,58.28 L365.29,57.66 L365.83,57.05 L366.36,56.43 L366.90,55.81 L367.45,55.20 L367.99,54.58 L368.54,53.98 L369.10,53.38 L369.65,52.79 L370.22,52.21 L370.78,51.65 L371.36,51.10 L371.93,50.56 L372.51,50.04 L373.10,49.55 L373.69,49.07 L374.29,48.61 L374.89,48.18 L375.49,47.78 L376.10,47.40 L376.72,47.05 L377.34,46.72 L377.96,46.43 L378.59,46.17 L379.22,45.93 L379.85,45.73 L380.49,45.57 L381.14,45.43 L381.78,45.33 L382.43,45.26 L383.08,45.22 L383.73,45.22 L384.39,45.25 L385.04,45.32 L385.70,45.42 L386.36,45.55 L387.02,45.71 L387.68,45.90 L388.34,46.13 L389.00,46.38 L389.66,46.66 L390.32,46.97 L390.98,47.31 L391.64,47.67 L392.30,48.06 L392.95,48.47 L393.61,48.90 L394.26,49.35 L394.91,49.82 L395.55,50.30 L396.20,50.80 L396.84,51.31 L397.48,51.83 L398.11,52.37 L398.74,52.91 L399.37,53.45 L400.00,54.00 L400.62,54.55 L401.24,55.10 L401.86,55.65 L402.48,56.19 L403.09,56.73 L403.69,57.26 L404.30,57.79 L404.90,58.30 L405.50,58.79 L406.10,59.28 L406.70,59.75 L407.29,60.19 L407.89,60.63 L408.48,61.03 L409.07,61.42 L409.65,61.79 L410.24,62.13 L410.83,62.44 L411.42,62.73 L412.01,63.00 L412.59,63.23 L413.18,63.44 L413.77,63.61 L414.36,63.76 L414.95,63.88 L415.55,63.97 L416.14,64.02 L416.74,64.05 L417.34,64.05 L417.94,64.02 L418.55,63.96 L419.16,63.87 L419.77,63.75 L420.39,63.60 L421.01,63.43 L421.64,63.23 L422.27,63.01 L422.90,62.76 L423.54,62.49 L424.18,62.20 L424.82,61.88 L425.47,61.55 L426.13,61.21 L426.79,60.84 L427.45,60.46 L428.12,60.07 L428.79,59.67 L429.47,59.26 L430.15,58.84 L430.83,58.41 L431.52,57.98 L432.21,57.55 L432.90,57.12 L433.60,56.69 L434.30,56.26 L435.00,55.84 L435.70,55.43 L436.40,55.02 L437.11,54.62 L437.82,54.24 L438.52,53.87 L439.23,53.51 L439.94,53.18 L440.64,52.86 L441.35,52.56 L442.05,52.28 L442.75,52.02 L443.45,51.78 L444.15,51.58 L444.84,51.39 L445.53,51.24 L446.22,51.11 L446.90,51.00 L447.57,50.93 L448.25,50.89 L448.91,50.88 L449.57,50.89 L450.23,50.94 L450.87,51.02 L451.52,51.13 L452.15,51.27 L452.78,51.44 L453.40,51.64 L454.01,51.87 L454.61,52.13 L455.21,52.41 L455.80,52.73 L456.38,53.07 L456.96,53.44 L457.52,53.84 L458.08,54.26 L458.63,54.71 L459.17,55.17 L459.70,55.66 L460.23,56.17 L460.75,56.70 L461.26,57.24 L461.77,57.80 L462.27,58.38 L462.76,58.97 L463.25,59.57 L463.73,60.18 L464.21,60.79 L464.68,61.42 L465.15,62.05 L465.61,62.68 L466.07,63.32 L466.53,63.96 L466.98,64.59 L467.44,65.23 L467.89,65.85 L468.34,66.48 L468.79,67.09 L469.24,67.70 L469.69,68.30 L470.14,68.89 L470.60,69.46 L471.05,70.03 L471.51,70.57 L471.97,71.10 L472.44,71.62 L472.91,72.12 L473.39,72.59 L473.87,73.05 L474.35,73.49 L474.84,73.91 L475.34,74.31 L475.85,74.69 L476.36,75.04 L476.88,75.38 L477.41,75.69 L477.95,75.98 L478.49,76.25 L479.04,76.49 L479.61,76.71 L480.18,76.91 L480.75,77.09 L481.34,77.25 L481.94,77.39 L482.54,77.51 L483.16,77.61 L483.78,77.69 L484.41,77.75 L485.05,77.80 L485.70,77.83 L486.36,77.85 L487.02,77.85 L487.69,77.83 L488.37,77.81 L489.06,77.77 L489.75,77.73 L490.45,77.68 L491.15,77.62 L491.86,77.55 L492.57,77.48 L493.29,77.40 L494.01,77.33 L494.73,77.25 L495.46,77.17 L496.18,77.09 L496.91,77.02 L497.64,76.94 L498.37,76.88 L499.10,76.82 L499.83,76.77 L500.55,76.72 L501.27,76.69 L501.99,76.66 L502.71,76.65 L503.42,76.65 L504.13,76.66 L504.83,76.69 L505.52,76.73 L506.21,76.78 L506.90,76.86 L507.57,76.94 L508.24,77.05 L508.90,77.18 L509.55,77.32 L510.19,77.48 L510.82,77.66 L511.44,77.86 L512.06,78.07 L512.66,78.31 L513.25,78.57 L513.83,78.84 L514.40,79.13 L514.96,79.44 L515.51,79.78 L516.05,80.12 L516.58,80.49 L517.09,80.87 L517.60,81.28 L518.10,81.69 L518.58,82.13 L519.06,82.58 L519.52,83.04 L519.98,83.52 L520.42,84.01 L520.86,84.51 L521.29,85.02 L521.71,85.55 L522.12,86.08 L522.53,86.63 L522.92,87.18 L523.31,87.74 L523.70,88.31 L524.08,88.88 L524.45,89.46 L524.82,90.04 L525.19,90.62 L525.55,91.21 L525.91,91.80 L526.27,92.39 L526.62,92.98 L526.98,93.56 L527.33,94.15 L527.69,94.73 L528.04,95.31 L528.40,95.88 L528.76,96.45 L529.12,97.02 L529.48,97.58 L529.84,98.13 L530.21,98.67 L530.59,99.21 L530.96,99.74 L531.35,100.26 L531.73,100.77 L532.13,101.28 L532.53,101.77 L532.93,102.25 L533.34,102.73 L533.76,103.19 L534.19,103.65 L534.62,104.09 L535.06,104.53 L535.51,104.95 L535.96,105.37 L536.43,105.77 L536.89,106.17 L537.37,106.56 L537.86,106.93 L538.35,107.30 L538.85,107.66 L539.35,108.01 L539.87,108.36 L540.38,108.70 L540.91,109.03 L541.44,109.35 L541.98,109.67 L542.52,109.98 L543.07,110.29 L543.63,110.59 L544.18,110.89 L544.74,111.18 L545.31,111.48 L545.88,111.77 L546.45,112.05 L547.03,112.34 L547.60,112.63 L548.18,112.91 L548.76,113.20 L549.34,113.49 L549.92,113.77 L550.50,114.06 L551.08,114.36 L551.65,114.65 L552.23,114.95 L552.80,115.25 L553.37,115.56 L553.94,115.87 L554.51,116.18 L555.07,116.50 L555.62,116.83 L556.18,117.16 L556.72,117.50 L557.27,117.85 L557.80,118.20 L558.33,118.56 L558.86,118.92 L559.38,119.29 L559.89,119.67 L560.40,120.06 L560.89,120.45 L561.39,120.85 L561.87,121.26 L562.35,121.68 L562.82,122.10 L563.28,122.53 L563.74,122.97 L564.18,123.41 L564.63,123.86 L565.06,124.32 L565.49,124.79 L565.91,125.26 L566.32,125.74 L566.72,126.22 L567.12,126.71 L567.51,127.21 L567.90,127.71 L568.28,128.21 L568.66,128.72 L569.02,129.24 L569.39,129.76 L569.75,130.28 L570.10,130.80 L570.45,131.33 L570.79,131.87 L571.13,132.40 L571.47,132.94 L571.80,133.48 L572.13,134.02 L572.46,134.57 L572.79,135.11 L573.11,135.66 L573.43,136.20 L573.75,136.75 L574.07,137.30 L574.39,137.85 L574.70,138.40 L575.02,138.94 L575.33,139.49 L575.65,140.04 L575.97,140.58 L576.28,141.13 L576.60,141.67 L576.92,142.21 L577.24,142.75 L577.56,143.29 L577.88,143.83 L578.20,144.37 L578.53,144.91 L578.85,145.44 L579.18,145.97 L579.51,146.50 L579.84,147.03 L580.18,147.56 L580.51,148.08 L580.85,148.61 L581.19,149.13 L581.53,149.65 L581.87,150.17 L582.22,150.69 L582.56,151.21 L582.91,151.72 L583.26,152.24 L583.61,152.75 L583.96,153.27 L584.32,153.78 L584.67,154.29 L585.03,154.80 L585.38,155.31 L585.74,155.82 L586.10,156.33 L586.46,156.85 L586.81,157.36 L587.17,157.87 L587.53,158.38 L587.89,158.89 L588.24,159.40 L588.60,159.92 L588.95,160.43 L589.31,160.94 L589.66,161.46 L590.01,161.98 L590.36,162.49 L590.71,163.01 L591.05,163.53 L591.40,164.05 L591.74,164.58 L592.08,165.10 L592.42,165.63 L592.75,166.16 L593.09,166.68 L593.42,167.22 L593.75,167.75 L594.07,168.28 L594.39,168.82 L594.71,169.36 L595.03,169.89 L595.34,170.43 L595.65,170.98 L595.96,171.52 L596.27,172.07 L596.57,172.61 L596.87,173.16 L597.17,173.71 L597.46,174.27 L597.75,174.82 L598.04,175.37 L598.33,175.93 L598.61,176.49 L598.89,177.05 L599.17,177.61 L599.44,178.17 L599.72,178.73 L599.99,179.30 L600.25,179.86 L600.52,180.43 L600.78,180.99 L601.05,181.56 L601.31,182.13 L601.56,182.70 L601.82,183.27 L602.07,183.84 L602.33,184.41 L602.58,184.99 L602.83,185.56 L603.07,186.13 L603.32,186.71 L603.57,187.28 L603.81,187.86 L604.05,188.44 L604.29,189.01 L604.53,189.59 L604.77,190.17 L605.00,190.75 L605.24,191.32 L605.47,191.90 L605.71,192.48 L605.94,193.06 L606.17,193.65 L606.40,194.23 L606.63,194.81 L606.85,195.39 L607.08,195.97 L607.30,196.56 L607.52,197.14 L607.74,197.73 L607.96,198.31 L608.18,198.90 L608.40,199.48 L608.61,200.07" fill="none" stroke-width="11.5" stroke-linecap="round" stroke-linejoin="round" style="stroke:#12150F"/><path d="M191.39,200.07 L191.60,199.48 L191.82,198.90 L192.04,198.31 L192.26,197.73 L192.48,197.14 L192.70,196.56 L192.93,195.98 L193.15,195.39 L193.38,194.81 L193.61,194.23 L193.85,193.65 L194.08,193.07 L194.32,192.50 L194.56,191.92 L194.80,191.34 L195.04,190.77 L195.29,190.19 L195.53,189.62 L195.78,189.04 L196.03,188.47 L196.29,187.90 L196.54,187.33 L196.80,186.76 L197.05,186.19 L197.31,185.62 L197.58,185.05 L197.84,184.49 L198.10,183.92 L198.37,183.36 L198.64,182.79 L198.90,182.23 L199.17,181.66 L199.45,181.10 L199.72,180.54 L199.99,179.98 L200.27,179.42 L200.54,178.86 L200.82,178.30 L201.09,177.74 L201.37,177.18 L201.65,176.62 L201.93,176.06 L202.21,175.50 L202.49,174.94 L202.77,174.38 L203.05,173.82 L203.33,173.27 L203.61,172.71 L203.89,172.15 L204.17,171.59 L204.45,171.03 L204.73,170.48 L205.01,169.92 L205.30,169.36 L205.58,168.80 L205.86,168.24 L206.14,167.69 L206.43,167.13 L206.71,166.57 L207.00,166.01 L207.28,165.46 L207.57,164.90 L207.85,164.34 L208.14,163.78 L208.43,163.23 L208.72,162.67 L209.01,162.12 L209.30,161.56 L209.59,161.01 L209.89,160.45 L210.18,159.90 L210.48,159.35 L210.78,158.80 L211.09,158.25 L211.39,157.70 L211.70,157.16 L212.01,156.61 L212.33,156.07 L212.64,155.53 L212.96,154.99 L213.29,154.45 L213.61,153.91 L213.94,153.38 L214.28,152.85 L214.62,152.32 L214.96,151.80 L215.31,151.27 L215.66,150.75 L216.02,150.24 L216.38,149.72 L216.74,149.21 L217.11,148.70 L217.48,148.20 L217.86,147.70 L218.25,147.20 L218.64,146.71 L219.03,146.22 L219.43,145.74 L219.83,145.25 L220.24,144.78 L220.65,144.30 L221.07,143.83 L221.49,143.36 L221.91,142.90 L222.34,142.44 L222.78,141.98 L223.21,141.53 L223.65,141.08 L224.10,140.63 L224.55,140.19 L225.00,139.75 L225.45,139.31 L225.91,138.87 L226.36,138.44 L226.82,138.01 L227.29,137.58 L227.75,137.16 L228.21,136.73 L228.68,136.31 L229.15,135.88 L229.61,135.46 L230.08,135.04 L230.54,134.62 L231.01,134.20 L231.47,133.78 L231.94,133.36 L232.40,132.94 L232.86,132.51 L233.31,132.09 L233.77,131.66 L234.22,131.23 L234.67,130.80 L235.12,130.37 L235.56,129.94 L236.00,129.50 L236.43,129.06 L236.86,128.61 L237.29,128.16 L237.71,127.71 L238.13,127.25 L238.54,126.79 L238.95,126.33 L239.36,125.86 L239.76,125.38 L240.15,124.91 L240.54,124.42 L240.92,123.93 L241.30,123.44 L241.68,122.94 L242.05,122.44 L242.42,121.93 L242.78,121.42 L243.14,120.90 L243.50,120.37 L243.85,119.85 L244.20,119.32 L244.54,118.78 L244.88,118.24 L245.22,117.70 L245.56,117.15 L245.90,116.60 L246.23,116.05 L246.57,115.50 L246.90,114.94 L247.23,114.38 L247.57,113.82 L247.90,113.26 L248.24,112.70 L248.58,112.14 L248.92,111.59 L249.26,111.03 L249.60,110.47 L249.95,109.92 L250.30,109.37 L250.66,108.82 L251.02,108.28 L251.39,107.74 L251.76,107.21 L252.14,106.68 L252.52,106.15 L252.92,105.64 L253.31,105.13 L253.72,104.63 L254.13,104.14 L254.56,103.65 L254.99,103.18 L255.43,102.72 L255.87,102.26 L256.33,101.82 L256.80,101.38 L257.27,100.96 L257.76,100.55 L258.25,100.15 L258.76,99.76 L259.27,99.39 L259.80,99.03 L260.33,98.68 L260.87,98.34 L261.43,98.01 L261.99,97.70 L262.56,97.40 L263.14,97.12 L263.73,96.84 L264.32,96.58 L264.93,96.33 L265.54,96.09 L266.16,95.87 L266.79,95.65 L267.42,95.45 L268.06,95.26 L268.70,95.07 L269.35,94.90 L270.01,94.73 L270.67,94.58 L271.33,94.43 L272.00,94.28 L272.67,94.15 L273.34,94.02 L274.01,93.89 L274.68,93.77 L275.35,93.65 L276.03,93.54 L276.70,93.42 L277.37,93.31 L278.04,93.19 L278.71,93.08 L279.37,92.96 L280.03,92.84 L280.68,92.72 L281.33,92.59 L281.98,92.46 L282.62,92.32 L283.25,92.18 L283.88,92.02 L284.50,91.86 L285.12,91.69 L285.72,91.50 L286.32,91.31 L286.91,91.11 L287.49,90.89 L288.07,90.66 L288.63,90.41 L289.19,90.16 L289.73,89.88 L290.27,89.60 L290.80,89.30 L291.32,88.98 L291.83,88.65 L292.33,88.30 L292.83,87.93 L293.31,87.55 L293.79,87.15 L294.25,86.74 L294.71,86.31 L295.17,85.87 L295.61,85.41 L296.05,84.93 L296.48,84.44 L296.91,83.94 L297.33,83.42 L297.74,82.89 L298.15,82.35 L298.56,81.80 L298.96,81.23 L299.36,80.66 L299.75,80.07 L300.15,79.48 L300.54,78.88 L300.93,78.27 L301.32,77.66 L301.71,77.05 L302.11,76.43 L302.50,75.81 L302.90,75.19 L303.30,74.57 L303.70,73.95 L304.10,73.34 L304.51,72.73 L304.93,72.12 L305.35,71.52 L305.78,70.93 L306.21,70.35 L306.65,69.78 L307.10,69.22 L307.55,68.68 L308.02,68.15 L308.49,67.63 L308.97,67.13 L309.46,66.65 L309.96,66.18 L310.47,65.74 L310.99,65.31 L311.52,64.91 L312.06,64.53 L312.61,64.17 L313.16,63.83 L313.73,63.52 L314.31,63.23 L314.90,62.97 L315.50,62.73 L316.11,62.51 L316.73,62.32 L317.36,62.16 L318.00,62.02 L318.65,61.91 L319.30,61.82 L319.97,61.76 L320.64,61.73 L321.32,61.71 L322.01,61.72 L322.70,61.76 L323.41,61.81 L324.11,61.89 L324.82,61.99 L325.54,62.11 L326.26,62.25 L326.99,62.40 L327.72,62.57 L328.45,62.76 L329.19,62.96 L329.92,63.18 L330.66,63.41 L331.40,63.65 L332.14,63.89 L332.87,64.15 L333.61,64.41 L334.35,64.67 L335.08,64.94 L335.81,65.21 L336.54,65.47 L337.27,65.74 L337.99,66.00 L338.71,66.26 L339.42,66.51 L340.13,66.75 L340.83,66.99 L341.53,67.21 L342.22,67.42 L342.90,67.61 L343.58,67.79 L344.25,67.96 L344.92,68.10 L345.58,68.23 L346.23,68.33 L346.88,68.42 L347.51,68.48 L348.15,68.52 L348.77,68.53 L349.39,68.52 L350.00,68.49 L350.60,68.43 L351.20,68.34 L351.78,68.23 L352.37,68.08 L352.95,67.92 L353.52,67.72 L354.08,67.50 L354.64,67.25 L355.20,66.97 L355.75,66.67 L356.30,66.34 L356.84,65.98 L357.38,65.60 L357.92,65.20 L358.45,64.77 L358.98,64.33 L359.51,63.86 L360.03,63.37 L360.56,62.86 L361.08,62.33 L361.61,61.79 L362.13,61.23 L362.65,60.66 L363.18,60.08 L363.71,59.49 L364.23,58.88 L364.76,58.28 L365.29,57.66 L365.83,57.05 L366.36,56.43 L366.90,55.81 L367.45,55.20 L367.99,54.58 L368.54,53.98 L369.10,53.38 L369.65,52.79 L370.22,52.21 L370.78,51.65 L371.36,51.10 L371.93,50.56 L372.51,50.04 L373.10,49.55 L373.69,49.07 L374.29,48.61 L374.89,48.18 L375.49,47.78 L376.10,47.40 L376.72,47.05 L377.34,46.72 L377.96,46.43 L378.59,46.17 L379.22,45.93 L379.85,45.73 L380.49,45.57 L381.14,45.43 L381.78,45.33 L382.43,45.26 L383.08,45.22 L383.73,45.22 L384.39,45.25 L385.04,45.32 L385.70,45.42 L386.36,45.55 L387.02,45.71 L387.68,45.90 L388.34,46.13 L389.00,46.38 L389.66,46.66 L390.32,46.97 L390.98,47.31 L391.64,47.67 L392.30,48.06 L392.95,48.47 L393.61,48.90 L394.26,49.35 L394.91,49.82 L395.55,50.30 L396.20,50.80 L396.84,51.31 L397.48,51.83 L398.11,52.37 L398.74,52.91 L399.37,53.45 L400.00,54.00 L400.62,54.55 L401.24,55.10 L401.86,55.65 L402.48,56.19 L403.09,56.73 L403.69,57.26 L404.30,57.79 L404.90,58.30 L405.50,58.79 L406.10,59.28 L406.70,59.75 L407.29,60.19 L407.89,60.63 L408.48,61.03 L409.07,61.42 L409.65,61.79 L410.24,62.13 L410.83,62.44 L411.42,62.73 L412.01,63.00 L412.59,63.23 L413.18,63.44 L413.77,63.61 L414.36,63.76 L414.95,63.88 L415.55,63.97 L416.14,64.02 L416.74,64.05 L417.34,64.05 L417.94,64.02 L418.55,63.96 L419.16,63.87 L419.77,63.75 L420.39,63.60 L421.01,63.43 L421.64,63.23 L422.27,63.01 L422.90,62.76 L423.54,62.49 L424.18,62.20 L424.82,61.88 L425.47,61.55 L426.13,61.21 L426.79,60.84 L427.45,60.46 L428.12,60.07 L428.79,59.67 L429.47,59.26 L430.15,58.84 L430.83,58.41 L431.52,57.98 L432.21,57.55 L432.90,57.12 L433.60,56.69 L434.30,56.26 L435.00,55.84 L435.70,55.43 L436.40,55.02 L437.11,54.62 L437.82,54.24 L438.52,53.87 L439.23,53.51 L439.94,53.18 L440.64,52.86 L441.35,52.56 L442.05,52.28 L442.75,52.02 L443.45,51.78 L444.15,51.58 L444.84,51.39 L445.53,51.24 L446.22,51.11 L446.90,51.00 L447.57,50.93 L448.25,50.89 L448.91,50.88 L449.57,50.89 L450.23,50.94 L450.87,51.02 L451.52,51.13 L452.15,51.27 L452.78,51.44 L453.40,51.64 L454.01,51.87 L454.61,52.13 L455.21,52.41 L455.80,52.73 L456.38,53.07 L456.96,53.44 L457.52,53.84 L458.08,54.26 L458.63,54.71 L459.17,55.17 L459.70,55.66 L460.23,56.17 L460.75,56.70 L461.26,57.24 L461.77,57.80 L462.27,58.38 L462.76,58.97 L463.25,59.57 L463.73,60.18 L464.21,60.79 L464.68,61.42 L465.15,62.05 L465.61,62.68 L466.07,63.32 L466.53,63.96 L466.98,64.59 L467.44,65.23 L467.89,65.85 L468.34,66.48 L468.79,67.09 L469.24,67.70 L469.69,68.30 L470.14,68.89 L470.60,69.46 L471.05,70.03 L471.51,70.57 L471.97,71.10 L472.44,71.62 L472.91,72.12 L473.39,72.59 L473.87,73.05 L474.35,73.49 L474.84,73.91 L475.34,74.31 L475.85,74.69 L476.36,75.04 L476.88,75.38 L477.41,75.69 L477.95,75.98 L478.49,76.25 L479.04,76.49 L479.61,76.71 L480.18,76.91 L480.75,77.09 L481.34,77.25 L481.94,77.39 L482.54,77.51 L483.16,77.61 L483.78,77.69 L484.41,77.75 L485.05,77.80 L485.70,77.83 L486.36,77.85 L487.02,77.85 L487.69,77.83 L488.37,77.81 L489.06,77.77 L489.75,77.73 L490.45,77.68 L491.15,77.62 L491.86,77.55 L492.57,77.48 L493.29,77.40 L494.01,77.33 L494.73,77.25 L495.46,77.17 L496.18,77.09 L496.91,77.02 L497.64,76.94 L498.37,76.88 L499.10,76.82 L499.83,76.77 L500.55,76.72 L501.27,76.69 L501.99,76.66 L502.71,76.65 L503.42,76.65 L504.13,76.66 L504.83,76.69 L505.52,76.73 L506.21,76.78 L506.90,76.86 L507.57,76.94 L508.24,77.05 L508.90,77.18 L509.55,77.32 L510.19,77.48 L510.82,77.66 L511.44,77.86 L512.06,78.07 L512.66,78.31 L513.25,78.57 L513.83,78.84 L514.40,79.13 L514.96,79.44 L515.51,79.78 L516.05,80.12 L516.58,80.49 L517.09,80.87 L517.60,81.28 L518.10,81.69 L518.58,82.13 L519.06,82.58 L519.52,83.04 L519.98,83.52 L520.42,84.01 L520.86,84.51 L521.29,85.02 L521.71,85.55 L522.12,86.08 L522.53,86.63 L522.92,87.18 L523.31,87.74 L523.70,88.31 L524.08,88.88 L524.45,89.46 L524.82,90.04 L525.19,90.62 L525.55,91.21 L525.91,91.80 L526.27,92.39 L526.62,92.98 L526.98,93.56 L527.33,94.15 L527.69,94.73 L528.04,95.31 L528.40,95.88 L528.76,96.45 L529.12,97.02 L529.48,97.58 L529.84,98.13 L530.21,98.67 L530.59,99.21 L530.96,99.74 L531.35,100.26 L531.73,100.77 L532.13,101.28 L532.53,101.77 L532.93,102.25 L533.34,102.73 L533.76,103.19 L534.19,103.65 L534.62,104.09 L535.06,104.53 L535.51,104.95 L535.96,105.37 L536.43,105.77 L536.89,106.17 L537.37,106.56 L537.86,106.93 L538.35,107.30 L538.85,107.66 L539.35,108.01 L539.87,108.36 L540.38,108.70 L540.91,109.03 L541.44,109.35 L541.98,109.67 L542.52,109.98 L543.07,110.29 L543.63,110.59 L544.18,110.89 L544.74,111.18 L545.31,111.48 L545.88,111.77 L546.45,112.05 L547.03,112.34 L547.60,112.63 L548.18,112.91 L548.76,113.20 L549.34,113.49 L549.92,113.77 L550.50,114.06 L551.08,114.36 L551.65,114.65 L552.23,114.95 L552.80,115.25 L553.37,115.56 L553.94,115.87 L554.51,116.18 L555.07,116.50 L555.62,116.83 L556.18,117.16 L556.72,117.50 L557.27,117.85 L557.80,118.20 L558.33,118.56 L558.86,118.92 L559.38,119.29 L559.89,119.67 L560.40,120.06 L560.89,120.45 L561.39,120.85 L561.87,121.26 L562.35,121.68 L562.82,122.10 L563.28,122.53 L563.74,122.97 L564.18,123.41 L564.63,123.86 L565.06,124.32 L565.49,124.79 L565.91,125.26 L566.32,125.74 L566.72,126.22 L567.12,126.71 L567.51,127.21 L567.90,127.71 L568.28,128.21 L568.66,128.72 L569.02,129.24 L569.39,129.76 L569.75,130.28 L570.10,130.80 L570.45,131.33 L570.79,131.87 L571.13,132.40 L571.47,132.94 L571.80,133.48 L572.13,134.02 L572.46,134.57 L572.79,135.11 L573.11,135.66 L573.43,136.20 L573.75,136.75 L574.07,137.30 L574.39,137.85 L574.70,138.40 L575.02,138.94 L575.33,139.49 L575.65,140.04 L575.97,140.58 L576.28,141.13 L576.60,141.67 L576.92,142.21 L577.24,142.75 L577.56,143.29 L577.88,143.83 L578.20,144.37 L578.53,144.91 L578.85,145.44 L579.18,145.97 L579.51,146.50 L579.84,147.03 L580.18,147.56 L580.51,148.08 L580.85,148.61 L581.19,149.13 L581.53,149.65 L581.87,150.17 L582.22,150.69 L582.56,151.21 L582.91,151.72 L583.26,152.24 L583.61,152.75 L583.96,153.27 L584.32,153.78 L584.67,154.29 L585.03,154.80 L585.38,155.31 L585.74,155.82 L586.10,156.33 L586.46,156.85 L586.81,157.36 L587.17,157.87 L587.53,158.38 L587.89,158.89 L588.24,159.40 L588.60,159.92 L588.95,160.43 L589.31,160.94 L589.66,161.46 L590.01,161.98 L590.36,162.49 L590.71,163.01 L591.05,163.53 L591.40,164.05 L591.74,164.58 L592.08,165.10 L592.42,165.63 L592.75,166.16 L593.09,166.68 L593.42,167.22 L593.75,167.75 L594.07,168.28 L594.39,168.82 L594.71,169.36 L595.03,169.89 L595.34,170.43 L595.65,170.98 L595.96,171.52 L596.27,172.07 L596.57,172.61 L596.87,173.16 L597.17,173.71 L597.46,174.27 L597.75,174.82 L598.04,175.37 L598.33,175.93 L598.61,176.49 L598.89,177.05 L599.17,177.61 L599.44,178.17 L599.72,178.73 L599.99,179.30 L600.25,179.86 L600.52,180.43 L600.78,180.99 L601.05,181.56 L601.31,182.13 L601.56,182.70 L601.82,183.27 L602.07,183.84 L602.33,184.41 L602.58,184.99 L602.83,185.56 L603.07,186.13 L603.32,186.71 L603.57,187.28 L603.81,187.86 L604.05,188.44 L604.29,189.01 L604.53,189.59 L604.77,190.17 L605.00,190.75 L605.24,191.32 L605.47,191.90 L605.71,192.48 L605.94,193.06 L606.17,193.65 L606.40,194.23 L606.63,194.81 L606.85,195.39 L607.08,195.97 L607.30,196.56 L607.52,197.14 L607.74,197.73 L607.96,198.31 L608.18,198.90 L608.40,199.48 L608.61,200.07" fill="none" stroke-width="4.5" stroke-linecap="round" stroke-linejoin="round" style="stroke:url(#ggArchCord)"/><path d="M191.39,200.07 L191.60,199.48 L191.82,198.90 L192.04,198.31 L192.26,197.73 L192.48,197.14 L192.70,196.56 L192.92,195.97 L193.15,195.39 L193.37,194.81 L193.60,194.23 L193.83,193.65 L194.06,193.06 L194.29,192.48 L194.53,191.90 L194.76,191.32 L195.00,190.75 L195.23,190.17 L195.47,189.59 L195.71,189.01 L195.95,188.44 L196.19,187.86 L196.43,187.28 L196.68,186.71 L196.93,186.13 L197.17,185.56 L197.42,184.99 L197.67,184.41 L197.93,183.84 L198.18,183.27 L198.44,182.70 L198.69,182.13 L198.95,181.56 L199.22,180.99 L199.48,180.43 L199.75,179.86 L200.01,179.30 L200.28,178.73 L200.56,178.17 L200.83,177.61 L201.11,177.05 L201.39,176.49 L201.67,175.93 L201.96,175.37 L202.25,174.82 L202.54,174.27 L202.83,173.71 L203.13,173.16 L203.43,172.61 L203.73,172.07 L204.04,171.52 L204.35,170.98 L204.66,170.43 L204.97,169.89 L205.29,169.36 L205.61,168.82 L205.93,168.28 L206.25,167.75 L206.58,167.22 L206.91,166.68 L207.25,166.16 L207.58,165.63 L207.92,165.10 L208.26,164.58 L208.60,164.05 L208.95,163.53 L209.29,163.01 L209.64,162.49 L209.99,161.98 L210.34,161.46 L210.69,160.94 L211.05,160.43 L211.40,159.92 L211.76,159.40 L212.11,158.89 L212.47,158.38 L212.83,157.87 L213.19,157.36 L213.54,156.85 L213.90,156.33 L214.26,155.82 L214.62,155.31 L214.97,154.80 L215.33,154.29 L215.68,153.78 L216.04,153.27 L216.39,152.75 L216.74,152.24 L217.09,151.72 L217.44,151.21 L217.78,150.69 L218.13,150.17 L218.47,149.65 L218.81,149.13 L219.15,148.61 L219.49,148.08 L219.82,147.56 L220.16,147.03 L220.49,146.50 L220.82,145.97 L221.15,145.44 L221.47,144.91 L221.80,144.37 L222.12,143.83 L222.44,143.29 L222.76,142.75 L223.08,142.21 L223.40,141.67 L223.72,141.13 L224.03,140.58 L224.35,140.04 L224.67,139.49 L224.98,138.94 L225.30,138.40 L225.61,137.85 L225.93,137.30 L226.25,136.75 L226.57,136.20 L226.89,135.66 L227.21,135.11 L227.54,134.57 L227.87,134.02 L228.20,133.48 L228.53,132.94 L228.87,132.40 L229.21,131.87 L229.55,131.33 L229.90,130.80 L230.25,130.28 L230.61,129.76 L230.98,129.24 L231.34,128.72 L231.72,128.21 L232.10,127.71 L232.49,127.21 L232.88,126.71 L233.28,126.22 L233.68,125.74 L234.09,125.26 L234.51,124.79 L234.94,124.32 L235.37,123.86 L235.82,123.41 L236.26,122.97 L236.72,122.53 L237.18,122.10 L237.65,121.68 L238.13,121.26 L238.61,120.85 L239.11,120.45 L239.60,120.06 L240.11,119.67 L240.62,119.29 L241.14,118.92 L241.67,118.56 L242.20,118.20 L242.73,117.85 L243.28,117.50 L243.82,117.16 L244.38,116.83 L244.93,116.50 L245.49,116.18 L246.06,115.87 L246.63,115.56 L247.20,115.25 L247.77,114.95 L248.35,114.65 L248.92,114.36 L249.50,114.06 L250.08,113.77 L250.66,113.49 L251.24,113.20 L251.82,112.91 L252.40,112.63 L252.97,112.34 L253.55,112.05 L254.12,111.77 L254.69,111.48 L255.26,111.18 L255.82,110.89 L256.37,110.59 L256.93,110.29 L257.48,109.98 L258.02,109.67 L258.56,109.35 L259.09,109.03 L259.62,108.70 L260.13,108.36 L260.65,108.01 L261.15,107.66 L261.65,107.30 L262.14,106.93 L262.63,106.56 L263.11,106.17 L263.57,105.77 L264.04,105.37 L264.49,104.95 L264.94,104.53 L265.38,104.09 L265.81,103.65 L266.24,103.19 L266.66,102.73 L267.07,102.25 L267.47,101.77 L267.87,101.28 L268.27,100.77 L268.65,100.26 L269.04,99.74 L269.41,99.21 L269.79,98.67 L270.16,98.13 L270.52,97.58 L270.88,97.02 L271.24,96.45 L271.60,95.88 L271.96,95.31 L272.31,94.73 L272.67,94.15 L273.02,93.56 L273.38,92.98 L273.73,92.39 L274.09,91.80 L274.45,91.21 L274.81,90.62 L275.18,90.04 L275.55,89.46 L275.92,88.88 L276.30,88.31 L276.69,87.74 L277.08,87.18 L277.47,86.63 L277.88,86.08 L278.29,85.55 L278.71,85.02 L279.14,84.51 L279.58,84.01 L280.02,83.52 L280.48,83.04 L280.94,82.58 L281.42,82.13 L281.90,81.69 L282.40,81.28 L282.91,80.87 L283.42,80.49 L283.95,80.12 L284.49,79.78 L285.04,79.44 L285.60,79.13 L286.17,78.84 L286.75,78.57 L287.34,78.31 L287.94,78.07 L288.56,77.86 L289.18,77.66 L289.81,77.48 L290.45,77.32 L291.10,77.18 L291.76,77.05 L292.43,76.94 L293.10,76.86 L293.79,76.78 L294.48,76.73 L295.17,76.69 L295.87,76.66 L296.58,76.65 L297.29,76.65 L298.01,76.66 L298.73,76.69 L299.45,76.72 L300.17,76.77 L300.90,76.82 L301.63,76.88 L302.36,76.94 L303.09,77.02 L303.82,77.09 L304.54,77.17 L305.27,77.25 L305.99,77.33 L306.71,77.40 L307.43,77.48 L308.14,77.55 L308.85,77.62 L309.55,77.68 L310.25,77.73 L310.94,77.77 L311.63,77.81 L312.31,77.83 L312.98,77.85 L313.64,77.85 L314.30,77.83 L314.95,77.80 L315.59,77.75 L316.22,77.69 L316.84,77.61 L317.46,77.51 L318.06,77.39 L318.66,77.25 L319.25,77.09 L319.82,76.91 L320.39,76.71 L320.96,76.49 L321.51,76.25 L322.05,75.98 L322.59,75.69 L323.12,75.38 L323.64,75.04 L324.15,74.69 L324.66,74.31 L325.16,73.91 L325.65,73.49 L326.13,73.05 L326.61,72.59 L327.09,72.12 L327.56,71.62 L328.03,71.10 L328.49,70.57 L328.95,70.03 L329.40,69.46 L329.86,68.89 L330.31,68.30 L330.76,67.70 L331.21,67.09 L331.66,66.48 L332.11,65.85 L332.56,65.23 L333.02,64.59 L333.47,63.96 L333.93,63.32 L334.39,62.68 L334.85,62.05 L335.32,61.42 L335.79,60.79 L336.27,60.18 L336.75,59.57 L337.24,58.97 L337.73,58.38 L338.23,57.80 L338.74,57.24 L339.25,56.70 L339.77,56.17 L340.30,55.66 L340.83,55.17 L341.37,54.71 L341.92,54.26 L342.48,53.84 L343.04,53.44 L343.62,53.07 L344.20,52.73 L344.79,52.41 L345.39,52.13 L345.99,51.87 L346.60,51.64 L347.22,51.44 L347.85,51.27 L348.48,51.13 L349.13,51.02 L349.77,50.94 L350.43,50.89 L351.09,50.88 L351.75,50.89 L352.43,50.93 L353.10,51.00 L353.78,51.11 L354.47,51.24 L355.16,51.39 L355.85,51.58 L356.55,51.78 L357.25,52.02 L357.95,52.28 L358.65,52.56 L359.36,52.86 L360.06,53.18 L360.77,53.51 L361.48,53.87 L362.18,54.24 L362.89,54.62 L363.60,55.02 L364.30,55.43 L365.00,55.84 L365.70,56.26 L366.40,56.69 L367.10,57.12 L367.79,57.55 L368.48,57.98 L369.17,58.41 L369.85,58.84 L370.53,59.26 L371.21,59.67 L371.88,60.07 L372.55,60.46 L373.21,60.84 L373.87,61.21 L374.53,61.55 L375.18,61.88 L375.82,62.20 L376.46,62.49 L377.10,62.76 L377.73,63.01 L378.36,63.23 L378.99,63.43 L379.61,63.60 L380.23,63.75 L380.84,63.87 L381.45,63.96 L382.06,64.02 L382.66,64.05 L383.26,64.05 L383.86,64.02 L384.45,63.97 L385.05,63.88 L385.64,63.76 L386.23,63.61 L386.82,63.44 L387.41,63.23 L387.99,63.00 L388.58,62.73 L389.17,62.44 L389.76,62.13 L390.35,61.79 L390.93,61.42 L391.52,61.03 L392.11,60.63 L392.71,60.19 L393.30,59.75 L393.90,59.28 L394.50,58.79 L395.10,58.30 L395.70,57.79 L396.31,57.26 L396.91,56.73 L397.52,56.19 L398.14,55.65 L398.76,55.10 L399.38,54.55 L400.00,54.00 L400.63,53.45 L401.26,52.91 L401.89,52.37 L402.52,51.83 L403.16,51.31 L403.80,50.80 L404.45,50.30 L405.09,49.82 L405.74,49.35 L406.39,48.90 L407.05,48.47 L407.70,48.06 L408.36,47.67 L409.02,47.31 L409.68,46.97 L410.34,46.66 L411.00,46.38 L411.66,46.13 L412.32,45.90 L412.98,45.71 L413.64,45.55 L414.30,45.42 L414.96,45.32 L415.61,45.25 L416.27,45.22 L416.92,45.22 L417.57,45.26 L418.22,45.33 L418.86,45.43 L419.51,45.57 L420.15,45.73 L420.78,45.93 L421.41,46.17 L422.04,46.43 L422.66,46.72 L423.28,47.05 L423.90,47.40 L424.51,47.78 L425.11,48.18 L425.71,48.61 L426.31,49.07 L426.90,49.55 L427.49,50.04 L428.07,50.56 L428.64,51.10 L429.22,51.65 L429.78,52.21 L430.35,52.79 L430.90,53.38 L431.46,53.98 L432.01,54.58 L432.55,55.20 L433.10,55.81 L433.64,56.43 L434.17,57.05 L434.71,57.66 L435.24,58.28 L435.77,58.88 L436.29,59.49 L436.82,60.08 L437.35,60.66 L437.87,61.23 L438.39,61.79 L438.92,62.33 L439.44,62.86 L439.97,63.37 L440.49,63.86 L441.02,64.33 L441.55,64.77 L442.08,65.20 L442.62,65.60 L443.16,65.98 L443.70,66.34 L444.25,66.67 L444.80,66.97 L445.36,67.25 L445.92,67.50 L446.48,67.72 L447.05,67.92 L447.63,68.08 L448.22,68.23 L448.80,68.34 L449.40,68.43 L450.00,68.49 L450.61,68.52 L451.23,68.53 L451.85,68.52 L452.49,68.48 L453.12,68.42 L453.77,68.33 L454.42,68.23 L455.08,68.10 L455.75,67.96 L456.42,67.79 L457.10,67.61 L457.78,67.42 L458.47,67.21 L459.17,66.99 L459.87,66.75 L460.58,66.51 L461.29,66.26 L462.01,66.00 L462.73,65.74 L463.46,65.47 L464.19,65.21 L464.92,64.94 L465.65,64.67 L466.39,64.41 L467.13,64.15 L467.86,63.89 L468.60,63.65 L469.34,63.41 L470.08,63.18 L470.81,62.96 L471.55,62.76 L472.28,62.57 L473.01,62.40 L473.74,62.25 L474.46,62.11 L475.18,61.99 L475.89,61.89 L476.59,61.81 L477.30,61.76 L477.99,61.72 L478.68,61.71 L479.36,61.73 L480.03,61.76 L480.70,61.82 L481.35,61.91 L482.00,62.02 L482.64,62.16 L483.27,62.32 L483.89,62.51 L484.50,62.73 L485.10,62.97 L485.69,63.23 L486.27,63.52 L486.84,63.83 L487.39,64.17 L487.94,64.53 L488.48,64.91 L489.01,65.31 L489.53,65.74 L490.04,66.18 L490.54,66.65 L491.03,67.13 L491.51,67.63 L491.98,68.15 L492.45,68.68 L492.90,69.22 L493.35,69.78 L493.79,70.35 L494.22,70.93 L494.65,71.52 L495.07,72.12 L495.49,72.73 L495.90,73.34 L496.30,73.95 L496.70,74.57 L497.10,75.19 L497.50,75.81 L497.89,76.43 L498.29,77.05 L498.68,77.66 L499.07,78.27 L499.46,78.88 L499.85,79.48 L500.25,80.07 L500.64,80.66 L501.04,81.23 L501.44,81.80 L501.85,82.35 L502.26,82.89 L502.67,83.42 L503.09,83.94 L503.52,84.44 L503.95,84.93 L504.39,85.41 L504.83,85.87 L505.29,86.31 L505.75,86.74 L506.21,87.15 L506.69,87.55 L507.17,87.93 L507.67,88.30 L508.17,88.65 L508.68,88.98 L509.20,89.30 L509.73,89.60 L510.27,89.88 L510.81,90.16 L511.37,90.41 L511.93,90.66 L512.51,90.89 L513.09,91.11 L513.68,91.31 L514.28,91.50 L514.88,91.69 L515.50,91.86 L516.12,92.02 L516.75,92.18 L517.38,92.32 L518.02,92.46 L518.67,92.59 L519.32,92.72 L519.97,92.84 L520.63,92.96 L521.29,93.08 L521.96,93.19 L522.63,93.31 L523.30,93.42 L523.97,93.54 L524.65,93.65 L525.32,93.77 L525.99,93.89 L526.66,94.02 L527.33,94.15 L528.00,94.28 L528.67,94.43 L529.33,94.58 L529.99,94.73 L530.65,94.90 L531.30,95.07 L531.94,95.26 L532.58,95.45 L533.21,95.65 L533.84,95.87 L534.46,96.09 L535.07,96.33 L535.68,96.58 L536.27,96.84 L536.86,97.12 L537.44,97.40 L538.01,97.70 L538.57,98.01 L539.13,98.34 L539.67,98.68 L540.20,99.03 L540.73,99.39 L541.24,99.76 L541.75,100.15 L542.24,100.55 L542.73,100.96 L543.20,101.38 L543.67,101.82 L544.13,102.26 L544.57,102.72 L545.01,103.18 L545.44,103.65 L545.87,104.14 L546.28,104.63 L546.69,105.13 L547.08,105.64 L547.48,106.15 L547.86,106.68 L548.24,107.21 L548.61,107.74 L548.98,108.28 L549.34,108.82 L549.70,109.37 L550.05,109.92 L550.40,110.47 L550.74,111.03 L551.08,111.59 L551.42,112.14 L551.76,112.70 L552.10,113.26 L552.43,113.82 L552.77,114.38 L553.10,114.94 L553.43,115.50 L553.77,116.05 L554.10,116.60 L554.44,117.15 L554.78,117.70 L555.12,118.24 L555.46,118.78 L555.80,119.32 L556.15,119.85 L556.50,120.37 L556.86,120.90 L557.22,121.42 L557.58,121.93 L557.95,122.44 L558.32,122.94 L558.70,123.44 L559.08,123.93 L559.46,124.42 L559.85,124.91 L560.24,125.38 L560.64,125.86 L561.05,126.33 L561.46,126.79 L561.87,127.25 L562.29,127.71 L562.71,128.16 L563.14,128.61 L563.57,129.06 L564.00,129.50 L564.44,129.94 L564.88,130.37 L565.33,130.80 L565.78,131.23 L566.23,131.66 L566.69,132.09 L567.14,132.51 L567.60,132.94 L568.06,133.36 L568.53,133.78 L568.99,134.20 L569.46,134.62 L569.92,135.04 L570.39,135.46 L570.85,135.88 L571.32,136.31 L571.79,136.73 L572.25,137.16 L572.71,137.58 L573.18,138.01 L573.64,138.44 L574.09,138.87 L574.55,139.31 L575.00,139.75 L575.45,140.19 L575.90,140.63 L576.35,141.08 L576.79,141.53 L577.22,141.98 L577.66,142.44 L578.09,142.90 L578.51,143.36 L578.93,143.83 L579.35,144.30 L579.76,144.78 L580.17,145.25 L580.57,145.74 L580.97,146.22 L581.36,146.71 L581.75,147.20 L582.14,147.70 L582.52,148.20 L582.89,148.70 L583.26,149.21 L583.62,149.72 L583.98,150.24 L584.34,150.75 L584.69,151.27 L585.04,151.80 L585.38,152.32 L585.72,152.85 L586.06,153.38 L586.39,153.91 L586.71,154.45 L587.04,154.99 L587.36,155.53 L587.67,156.07 L587.99,156.61 L588.30,157.16 L588.61,157.70 L588.91,158.25 L589.22,158.80 L589.52,159.35 L589.82,159.90 L590.11,160.45 L590.41,161.01 L590.70,161.56 L590.99,162.12 L591.28,162.67 L591.57,163.23 L591.86,163.78 L592.15,164.34 L592.43,164.90 L592.72,165.46 L593.00,166.01 L593.29,166.57 L593.57,167.13 L593.86,167.69 L594.14,168.24 L594.42,168.80 L594.70,169.36 L594.99,169.92 L595.27,170.48 L595.55,171.03 L595.83,171.59 L596.11,172.15 L596.39,172.71 L596.67,173.27 L596.95,173.82 L597.23,174.38 L597.51,174.94 L597.79,175.50 L598.07,176.06 L598.35,176.62 L598.63,177.18 L598.91,177.74 L599.18,178.30 L599.46,178.86 L599.73,179.42 L600.01,179.98 L600.28,180.54 L600.55,181.10 L600.83,181.66 L601.10,182.23 L601.36,182.79 L601.63,183.36 L601.90,183.92 L602.16,184.49 L602.42,185.05 L602.69,185.62 L602.95,186.19 L603.20,186.76 L603.46,187.33 L603.71,187.90 L603.97,188.47 L604.22,189.04 L604.47,189.62 L604.71,190.19 L604.96,190.77 L605.20,191.34 L605.44,191.92 L605.68,192.50 L605.92,193.07 L606.15,193.65 L606.39,194.23 L606.62,194.81 L606.85,195.39 L607.07,195.98 L607.30,196.56 L607.52,197.14 L607.74,197.73 L607.96,198.31 L608.18,198.90 L608.40,199.48 L608.61,200.07" fill="none" stroke-width="11.5" stroke-linecap="round" stroke-linejoin="round" style="stroke:#12150F"/><path d="M191.39,200.07 L191.60,199.48 L191.82,198.90 L192.04,198.31 L192.26,197.73 L192.48,197.14 L192.70,196.56 L192.92,195.97 L193.15,195.39 L193.37,194.81 L193.60,194.23 L193.83,193.65 L194.06,193.06 L194.29,192.48 L194.53,191.90 L194.76,191.32 L195.00,190.75 L195.23,190.17 L195.47,189.59 L195.71,189.01 L195.95,188.44 L196.19,187.86 L196.43,187.28 L196.68,186.71 L196.93,186.13 L197.17,185.56 L197.42,184.99 L197.67,184.41 L197.93,183.84 L198.18,183.27 L198.44,182.70 L198.69,182.13 L198.95,181.56 L199.22,180.99 L199.48,180.43 L199.75,179.86 L200.01,179.30 L200.28,178.73 L200.56,178.17 L200.83,177.61 L201.11,177.05 L201.39,176.49 L201.67,175.93 L201.96,175.37 L202.25,174.82 L202.54,174.27 L202.83,173.71 L203.13,173.16 L203.43,172.61 L203.73,172.07 L204.04,171.52 L204.35,170.98 L204.66,170.43 L204.97,169.89 L205.29,169.36 L205.61,168.82 L205.93,168.28 L206.25,167.75 L206.58,167.22 L206.91,166.68 L207.25,166.16 L207.58,165.63 L207.92,165.10 L208.26,164.58 L208.60,164.05 L208.95,163.53 L209.29,163.01 L209.64,162.49 L209.99,161.98 L210.34,161.46 L210.69,160.94 L211.05,160.43 L211.40,159.92 L211.76,159.40 L212.11,158.89 L212.47,158.38 L212.83,157.87 L213.19,157.36 L213.54,156.85 L213.90,156.33 L214.26,155.82 L214.62,155.31 L214.97,154.80 L215.33,154.29 L215.68,153.78 L216.04,153.27 L216.39,152.75 L216.74,152.24 L217.09,151.72 L217.44,151.21 L217.78,150.69 L218.13,150.17 L218.47,149.65 L218.81,149.13 L219.15,148.61 L219.49,148.08 L219.82,147.56 L220.16,147.03 L220.49,146.50 L220.82,145.97 L221.15,145.44 L221.47,144.91 L221.80,144.37 L222.12,143.83 L222.44,143.29 L222.76,142.75 L223.08,142.21 L223.40,141.67 L223.72,141.13 L224.03,140.58 L224.35,140.04 L224.67,139.49 L224.98,138.94 L225.30,138.40 L225.61,137.85 L225.93,137.30 L226.25,136.75 L226.57,136.20 L226.89,135.66 L227.21,135.11 L227.54,134.57 L227.87,134.02 L228.20,133.48 L228.53,132.94 L228.87,132.40 L229.21,131.87 L229.55,131.33 L229.90,130.80 L230.25,130.28 L230.61,129.76 L230.98,129.24 L231.34,128.72 L231.72,128.21 L232.10,127.71 L232.49,127.21 L232.88,126.71 L233.28,126.22 L233.68,125.74 L234.09,125.26 L234.51,124.79 L234.94,124.32 L235.37,123.86 L235.82,123.41 L236.26,122.97 L236.72,122.53 L237.18,122.10 L237.65,121.68 L238.13,121.26 L238.61,120.85 L239.11,120.45 L239.60,120.06 L240.11,119.67 L240.62,119.29 L241.14,118.92 L241.67,118.56 L242.20,118.20 L242.73,117.85 L243.28,117.50 L243.82,117.16 L244.38,116.83 L244.93,116.50 L245.49,116.18 L246.06,115.87 L246.63,115.56 L247.20,115.25 L247.77,114.95 L248.35,114.65 L248.92,114.36 L249.50,114.06 L250.08,113.77 L250.66,113.49 L251.24,113.20 L251.82,112.91 L252.40,112.63 L252.97,112.34 L253.55,112.05 L254.12,111.77 L254.69,111.48 L255.26,111.18 L255.82,110.89 L256.37,110.59 L256.93,110.29 L257.48,109.98 L258.02,109.67 L258.56,109.35 L259.09,109.03 L259.62,108.70 L260.13,108.36 L260.65,108.01 L261.15,107.66 L261.65,107.30 L262.14,106.93 L262.63,106.56 L263.11,106.17 L263.57,105.77 L264.04,105.37 L264.49,104.95 L264.94,104.53 L265.38,104.09 L265.81,103.65 L266.24,103.19 L266.66,102.73 L267.07,102.25 L267.47,101.77 L267.87,101.28 L268.27,100.77 L268.65,100.26 L269.04,99.74 L269.41,99.21 L269.79,98.67 L270.16,98.13 L270.52,97.58 L270.88,97.02 L271.24,96.45 L271.60,95.88 L271.96,95.31 L272.31,94.73 L272.67,94.15 L273.02,93.56 L273.38,92.98 L273.73,92.39 L274.09,91.80 L274.45,91.21 L274.81,90.62 L275.18,90.04 L275.55,89.46 L275.92,88.88 L276.30,88.31 L276.69,87.74 L277.08,87.18 L277.47,86.63 L277.88,86.08 L278.29,85.55 L278.71,85.02 L279.14,84.51 L279.58,84.01 L280.02,83.52 L280.48,83.04 L280.94,82.58 L281.42,82.13 L281.90,81.69 L282.40,81.28 L282.91,80.87 L283.42,80.49 L283.95,80.12 L284.49,79.78 L285.04,79.44 L285.60,79.13 L286.17,78.84 L286.75,78.57 L287.34,78.31 L287.94,78.07 L288.56,77.86 L289.18,77.66 L289.81,77.48 L290.45,77.32 L291.10,77.18 L291.76,77.05 L292.43,76.94 L293.10,76.86 L293.79,76.78 L294.48,76.73 L295.17,76.69 L295.87,76.66 L296.58,76.65 L297.29,76.65 L298.01,76.66 L298.73,76.69 L299.45,76.72 L300.17,76.77 L300.90,76.82 L301.63,76.88 L302.36,76.94 L303.09,77.02 L303.82,77.09 L304.54,77.17 L305.27,77.25 L305.99,77.33 L306.71,77.40 L307.43,77.48 L308.14,77.55 L308.85,77.62 L309.55,77.68 L310.25,77.73 L310.94,77.77 L311.63,77.81 L312.31,77.83 L312.98,77.85 L313.64,77.85 L314.30,77.83 L314.95,77.80 L315.59,77.75 L316.22,77.69 L316.84,77.61 L317.46,77.51 L318.06,77.39 L318.66,77.25 L319.25,77.09 L319.82,76.91 L320.39,76.71 L320.96,76.49 L321.51,76.25 L322.05,75.98 L322.59,75.69 L323.12,75.38 L323.64,75.04 L324.15,74.69 L324.66,74.31 L325.16,73.91 L325.65,73.49 L326.13,73.05 L326.61,72.59 L327.09,72.12 L327.56,71.62 L328.03,71.10 L328.49,70.57 L328.95,70.03 L329.40,69.46 L329.86,68.89 L330.31,68.30 L330.76,67.70 L331.21,67.09 L331.66,66.48 L332.11,65.85 L332.56,65.23 L333.02,64.59 L333.47,63.96 L333.93,63.32 L334.39,62.68 L334.85,62.05 L335.32,61.42 L335.79,60.79 L336.27,60.18 L336.75,59.57 L337.24,58.97 L337.73,58.38 L338.23,57.80 L338.74,57.24 L339.25,56.70 L339.77,56.17 L340.30,55.66 L340.83,55.17 L341.37,54.71 L341.92,54.26 L342.48,53.84 L343.04,53.44 L343.62,53.07 L344.20,52.73 L344.79,52.41 L345.39,52.13 L345.99,51.87 L346.60,51.64 L347.22,51.44 L347.85,51.27 L348.48,51.13 L349.13,51.02 L349.77,50.94 L350.43,50.89 L351.09,50.88 L351.75,50.89 L352.43,50.93 L353.10,51.00 L353.78,51.11 L354.47,51.24 L355.16,51.39 L355.85,51.58 L356.55,51.78 L357.25,52.02 L357.95,52.28 L358.65,52.56 L359.36,52.86 L360.06,53.18 L360.77,53.51 L361.48,53.87 L362.18,54.24 L362.89,54.62 L363.60,55.02 L364.30,55.43 L365.00,55.84 L365.70,56.26 L366.40,56.69 L367.10,57.12 L367.79,57.55 L368.48,57.98 L369.17,58.41 L369.85,58.84 L370.53,59.26 L371.21,59.67 L371.88,60.07 L372.55,60.46 L373.21,60.84 L373.87,61.21 L374.53,61.55 L375.18,61.88 L375.82,62.20 L376.46,62.49 L377.10,62.76 L377.73,63.01 L378.36,63.23 L378.99,63.43 L379.61,63.60 L380.23,63.75 L380.84,63.87 L381.45,63.96 L382.06,64.02 L382.66,64.05 L383.26,64.05 L383.86,64.02 L384.45,63.97 L385.05,63.88 L385.64,63.76 L386.23,63.61 L386.82,63.44 L387.41,63.23 L387.99,63.00 L388.58,62.73 L389.17,62.44 L389.76,62.13 L390.35,61.79 L390.93,61.42 L391.52,61.03 L392.11,60.63 L392.71,60.19 L393.30,59.75 L393.90,59.28 L394.50,58.79 L395.10,58.30 L395.70,57.79 L396.31,57.26 L396.91,56.73 L397.52,56.19 L398.14,55.65 L398.76,55.10 L399.38,54.55 L400.00,54.00 L400.63,53.45 L401.26,52.91 L401.89,52.37 L402.52,51.83 L403.16,51.31 L403.80,50.80 L404.45,50.30 L405.09,49.82 L405.74,49.35 L406.39,48.90 L407.05,48.47 L407.70,48.06 L408.36,47.67 L409.02,47.31 L409.68,46.97 L410.34,46.66 L411.00,46.38 L411.66,46.13 L412.32,45.90 L412.98,45.71 L413.64,45.55 L414.30,45.42 L414.96,45.32 L415.61,45.25 L416.27,45.22 L416.92,45.22 L417.57,45.26 L418.22,45.33 L418.86,45.43 L419.51,45.57 L420.15,45.73 L420.78,45.93 L421.41,46.17 L422.04,46.43 L422.66,46.72 L423.28,47.05 L423.90,47.40 L424.51,47.78 L425.11,48.18 L425.71,48.61 L426.31,49.07 L426.90,49.55 L427.49,50.04 L428.07,50.56 L428.64,51.10 L429.22,51.65 L429.78,52.21 L430.35,52.79 L430.90,53.38 L431.46,53.98 L432.01,54.58 L432.55,55.20 L433.10,55.81 L433.64,56.43 L434.17,57.05 L434.71,57.66 L435.24,58.28 L435.77,58.88 L436.29,59.49 L436.82,60.08 L437.35,60.66 L437.87,61.23 L438.39,61.79 L438.92,62.33 L439.44,62.86 L439.97,63.37 L440.49,63.86 L441.02,64.33 L441.55,64.77 L442.08,65.20 L442.62,65.60 L443.16,65.98 L443.70,66.34 L444.25,66.67 L444.80,66.97 L445.36,67.25 L445.92,67.50 L446.48,67.72 L447.05,67.92 L447.63,68.08 L448.22,68.23 L448.80,68.34 L449.40,68.43 L450.00,68.49 L450.61,68.52 L451.23,68.53 L451.85,68.52 L452.49,68.48 L453.12,68.42 L453.77,68.33 L454.42,68.23 L455.08,68.10 L455.75,67.96 L456.42,67.79 L457.10,67.61 L457.78,67.42 L458.47,67.21 L459.17,66.99 L459.87,66.75 L460.58,66.51 L461.29,66.26 L462.01,66.00 L462.73,65.74 L463.46,65.47 L464.19,65.21 L464.92,64.94 L465.65,64.67 L466.39,64.41 L467.13,64.15 L467.86,63.89 L468.60,63.65 L469.34,63.41 L470.08,63.18 L470.81,62.96 L471.55,62.76 L472.28,62.57 L473.01,62.40 L473.74,62.25 L474.46,62.11 L475.18,61.99 L475.89,61.89 L476.59,61.81 L477.30,61.76 L477.99,61.72 L478.68,61.71 L479.36,61.73 L480.03,61.76 L480.70,61.82 L481.35,61.91 L482.00,62.02 L482.64,62.16 L483.27,62.32 L483.89,62.51 L484.50,62.73 L485.10,62.97 L485.69,63.23 L486.27,63.52 L486.84,63.83 L487.39,64.17 L487.94,64.53 L488.48,64.91 L489.01,65.31 L489.53,65.74 L490.04,66.18 L490.54,66.65 L491.03,67.13 L491.51,67.63 L491.98,68.15 L492.45,68.68 L492.90,69.22 L493.35,69.78 L493.79,70.35 L494.22,70.93 L494.65,71.52 L495.07,72.12 L495.49,72.73 L495.90,73.34 L496.30,73.95 L496.70,74.57 L497.10,75.19 L497.50,75.81 L497.89,76.43 L498.29,77.05 L498.68,77.66 L499.07,78.27 L499.46,78.88 L499.85,79.48 L500.25,80.07 L500.64,80.66 L501.04,81.23 L501.44,81.80 L501.85,82.35 L502.26,82.89 L502.67,83.42 L503.09,83.94 L503.52,84.44 L503.95,84.93 L504.39,85.41 L504.83,85.87 L505.29,86.31 L505.75,86.74 L506.21,87.15 L506.69,87.55 L507.17,87.93 L507.67,88.30 L508.17,88.65 L508.68,88.98 L509.20,89.30 L509.73,89.60 L510.27,89.88 L510.81,90.16 L511.37,90.41 L511.93,90.66 L512.51,90.89 L513.09,91.11 L513.68,91.31 L514.28,91.50 L514.88,91.69 L515.50,91.86 L516.12,92.02 L516.75,92.18 L517.38,92.32 L518.02,92.46 L518.67,92.59 L519.32,92.72 L519.97,92.84 L520.63,92.96 L521.29,93.08 L521.96,93.19 L522.63,93.31 L523.30,93.42 L523.97,93.54 L524.65,93.65 L525.32,93.77 L525.99,93.89 L526.66,94.02 L527.33,94.15 L528.00,94.28 L528.67,94.43 L529.33,94.58 L529.99,94.73 L530.65,94.90 L531.30,95.07 L531.94,95.26 L532.58,95.45 L533.21,95.65 L533.84,95.87 L534.46,96.09 L535.07,96.33 L535.68,96.58 L536.27,96.84 L536.86,97.12 L537.44,97.40 L538.01,97.70 L538.57,98.01 L539.13,98.34 L539.67,98.68 L540.20,99.03 L540.73,99.39 L541.24,99.76 L541.75,100.15 L542.24,100.55 L542.73,100.96 L543.20,101.38 L543.67,101.82 L544.13,102.26 L544.57,102.72 L545.01,103.18 L545.44,103.65 L545.87,104.14 L546.28,104.63 L546.69,105.13 L547.08,105.64 L547.48,106.15 L547.86,106.68 L548.24,107.21 L548.61,107.74 L548.98,108.28 L549.34,108.82 L549.70,109.37 L550.05,109.92 L550.40,110.47 L550.74,111.03 L551.08,111.59 L551.42,112.14 L551.76,112.70 L552.10,113.26 L552.43,113.82 L552.77,114.38 L553.10,114.94 L553.43,115.50 L553.77,116.05 L554.10,116.60 L554.44,117.15 L554.78,117.70 L555.12,118.24 L555.46,118.78 L555.80,119.32 L556.15,119.85 L556.50,120.37 L556.86,120.90 L557.22,121.42 L557.58,121.93 L557.95,122.44 L558.32,122.94 L558.70,123.44 L559.08,123.93 L559.46,124.42 L559.85,124.91 L560.24,125.38 L560.64,125.86 L561.05,126.33 L561.46,126.79 L561.87,127.25 L562.29,127.71 L562.71,128.16 L563.14,128.61 L563.57,129.06 L564.00,129.50 L564.44,129.94 L564.88,130.37 L565.33,130.80 L565.78,131.23 L566.23,131.66 L566.69,132.09 L567.14,132.51 L567.60,132.94 L568.06,133.36 L568.53,133.78 L568.99,134.20 L569.46,134.62 L569.92,135.04 L570.39,135.46 L570.85,135.88 L571.32,136.31 L571.79,136.73 L572.25,137.16 L572.71,137.58 L573.18,138.01 L573.64,138.44 L574.09,138.87 L574.55,139.31 L575.00,139.75 L575.45,140.19 L575.90,140.63 L576.35,141.08 L576.79,141.53 L577.22,141.98 L577.66,142.44 L578.09,142.90 L578.51,143.36 L578.93,143.83 L579.35,144.30 L579.76,144.78 L580.17,145.25 L580.57,145.74 L580.97,146.22 L581.36,146.71 L581.75,147.20 L582.14,147.70 L582.52,148.20 L582.89,148.70 L583.26,149.21 L583.62,149.72 L583.98,150.24 L584.34,150.75 L584.69,151.27 L585.04,151.80 L585.38,152.32 L585.72,152.85 L586.06,153.38 L586.39,153.91 L586.71,154.45 L587.04,154.99 L587.36,155.53 L587.67,156.07 L587.99,156.61 L588.30,157.16 L588.61,157.70 L588.91,158.25 L589.22,158.80 L589.52,159.35 L589.82,159.90 L590.11,160.45 L590.41,161.01 L590.70,161.56 L590.99,162.12 L591.28,162.67 L591.57,163.23 L591.86,163.78 L592.15,164.34 L592.43,164.90 L592.72,165.46 L593.00,166.01 L593.29,166.57 L593.57,167.13 L593.86,167.69 L594.14,168.24 L594.42,168.80 L594.70,169.36 L594.99,169.92 L595.27,170.48 L595.55,171.03 L595.83,171.59 L596.11,172.15 L596.39,172.71 L596.67,173.27 L596.95,173.82 L597.23,174.38 L597.51,174.94 L597.79,175.50 L598.07,176.06 L598.35,176.62 L598.63,177.18 L598.91,177.74 L599.18,178.30 L599.46,178.86 L599.73,179.42 L600.01,179.98 L600.28,180.54 L600.55,181.10 L600.83,181.66 L601.10,182.23 L601.36,182.79 L601.63,183.36 L601.90,183.92 L602.16,184.49 L602.42,185.05 L602.69,185.62 L602.95,186.19 L603.20,186.76 L603.46,187.33 L603.71,187.90 L603.97,188.47 L604.22,189.04 L604.47,189.62 L604.71,190.19 L604.96,190.77 L605.20,191.34 L605.44,191.92 L605.68,192.50 L605.92,193.07 L606.15,193.65 L606.39,194.23 L606.62,194.81 L606.85,195.39 L607.07,195.98 L607.30,196.56 L607.52,197.14 L607.74,197.73 L607.96,198.31 L608.18,198.90 L608.40,199.48 L608.61,200.07" fill="none" stroke-width="4.5" stroke-linecap="round" stroke-linejoin="round" style="stroke:url(#ggArchCord)"/><path d="M256.33,101.82 L256.80,101.38 L257.27,100.96 L257.76,100.55 L258.25,100.15 L258.76,99.76 L259.27,99.39 L259.80,99.03 L260.33,98.68 L260.87,98.34 L261.43,98.01 L261.99,97.70 L262.56,97.40 L263.14,97.12 L263.73,96.84 L264.32,96.58 L264.93,96.33 L265.54,96.09 L266.16,95.87 L266.79,95.65 L267.42,95.45 L268.06,95.26 L268.70,95.07 L269.35,94.90 L270.01,94.73 L270.67,94.58 L271.33,94.43 L272.00,94.28 L272.67,94.15 L273.34,94.02 L274.01,93.89 L274.68,93.77 L275.35,93.65 L276.03,93.54 L276.70,93.42 L277.37,93.31 L278.04,93.19 L278.71,93.08 L279.37,92.96 L280.03,92.84 L280.68,92.72 L281.33,92.59 L281.98,92.46 L282.62,92.32 L283.25,92.18 L283.88,92.02 L284.50,91.86 L285.12,91.69 L285.72,91.50 L286.32,91.31 L286.91,91.11 L287.49,90.89 L288.07,90.66 L288.63,90.41 L289.19,90.16 L289.73,89.88 L290.27,89.60" fill="none" stroke-width="11.5" stroke-linecap="butt" stroke-linejoin="round" style="stroke:#12150F"/><path d="M256.33,101.82 L256.80,101.38 L257.27,100.96 L257.76,100.55 L258.25,100.15 L258.76,99.76 L259.27,99.39 L259.80,99.03 L260.33,98.68 L260.87,98.34 L261.43,98.01 L261.99,97.70 L262.56,97.40 L263.14,97.12 L263.73,96.84 L264.32,96.58 L264.93,96.33 L265.54,96.09 L266.16,95.87 L266.79,95.65 L267.42,95.45 L268.06,95.26 L268.70,95.07 L269.35,94.90 L270.01,94.73 L270.67,94.58 L271.33,94.43 L272.00,94.28 L272.67,94.15 L273.34,94.02 L274.01,93.89 L274.68,93.77 L275.35,93.65 L276.03,93.54 L276.70,93.42 L277.37,93.31 L278.04,93.19 L278.71,93.08 L279.37,92.96 L280.03,92.84 L280.68,92.72 L281.33,92.59 L281.98,92.46 L282.62,92.32 L283.25,92.18 L283.88,92.02 L284.50,91.86 L285.12,91.69 L285.72,91.50 L286.32,91.31 L286.91,91.11 L287.49,90.89 L288.07,90.66 L288.63,90.41 L289.19,90.16 L289.73,89.88 L290.27,89.60" fill="none" stroke-width="4.5" stroke-linecap="butt" stroke-linejoin="round" style="stroke:url(#ggArchCord)"/><path d="M313.73,63.52 L314.31,63.23 L314.90,62.97 L315.50,62.73 L316.11,62.51 L316.73,62.32 L317.36,62.16 L318.00,62.02 L318.65,61.91 L319.30,61.82 L319.97,61.76 L320.64,61.73 L321.32,61.71 L322.01,61.72 L322.70,61.76 L323.41,61.81 L324.11,61.89 L324.82,61.99 L325.54,62.11 L326.26,62.25 L326.99,62.40 L327.72,62.57 L328.45,62.76 L329.19,62.96 L329.92,63.18 L330.66,63.41 L331.40,63.65 L332.14,63.89 L332.87,64.15 L333.61,64.41 L334.35,64.67 L335.08,64.94 L335.81,65.21 L336.54,65.47 L337.27,65.74 L337.99,66.00 L338.71,66.26 L339.42,66.51 L340.13,66.75 L340.83,66.99 L341.53,67.21 L342.22,67.42 L342.90,67.61 L343.58,67.79 L344.25,67.96 L344.92,68.10 L345.58,68.23 L346.23,68.33 L346.88,68.42 L347.51,68.48 L348.15,68.52 L348.77,68.53 L349.39,68.52 L350.00,68.49 L350.60,68.43 L351.20,68.34 L351.78,68.23 L352.37,68.08" fill="none" stroke-width="11.5" stroke-linecap="butt" stroke-linejoin="round" style="stroke:#12150F"/><path d="M313.73,63.52 L314.31,63.23 L314.90,62.97 L315.50,62.73 L316.11,62.51 L316.73,62.32 L317.36,62.16 L318.00,62.02 L318.65,61.91 L319.30,61.82 L319.97,61.76 L320.64,61.73 L321.32,61.71 L322.01,61.72 L322.70,61.76 L323.41,61.81 L324.11,61.89 L324.82,61.99 L325.54,62.11 L326.26,62.25 L326.99,62.40 L327.72,62.57 L328.45,62.76 L329.19,62.96 L329.92,63.18 L330.66,63.41 L331.40,63.65 L332.14,63.89 L332.87,64.15 L333.61,64.41 L334.35,64.67 L335.08,64.94 L335.81,65.21 L336.54,65.47 L337.27,65.74 L337.99,66.00 L338.71,66.26 L339.42,66.51 L340.13,66.75 L340.83,66.99 L341.53,67.21 L342.22,67.42 L342.90,67.61 L343.58,67.79 L344.25,67.96 L344.92,68.10 L345.58,68.23 L346.23,68.33 L346.88,68.42 L347.51,68.48 L348.15,68.52 L348.77,68.53 L349.39,68.52 L350.00,68.49 L350.60,68.43 L351.20,68.34 L351.78,68.23 L352.37,68.08" fill="none" stroke-width="4.5" stroke-linecap="butt" stroke-linejoin="round" style="stroke:url(#ggArchCord)"/><path d="M381.78,45.33 L382.43,45.26 L383.08,45.22 L383.73,45.22 L384.39,45.25 L385.04,45.32 L385.70,45.42 L386.36,45.55 L387.02,45.71 L387.68,45.90 L388.34,46.13 L389.00,46.38 L389.66,46.66 L390.32,46.97 L390.98,47.31 L391.64,47.67 L392.30,48.06 L392.95,48.47 L393.61,48.90 L394.26,49.35 L394.91,49.82 L395.55,50.30 L396.20,50.80 L396.84,51.31 L397.48,51.83 L398.11,52.37 L398.74,52.91 L399.37,53.45 L400.00,54.00 L400.62,54.55 L401.24,55.10 L401.86,55.65 L402.48,56.19 L403.09,56.73 L403.69,57.26 L404.30,57.79 L404.90,58.30 L405.50,58.79 L406.10,59.28 L406.70,59.75 L407.29,60.19 L407.89,60.63 L408.48,61.03 L409.07,61.42 L409.65,61.79 L410.24,62.13 L410.83,62.44 L411.42,62.73 L412.01,63.00 L412.59,63.23 L413.18,63.44 L413.77,63.61 L414.36,63.76 L414.95,63.88 L415.55,63.97 L416.14,64.02 L416.74,64.05" fill="none" stroke-width="11.5" stroke-linecap="butt" stroke-linejoin="round" style="stroke:#12150F"/><path d="M381.78,45.33 L382.43,45.26 L383.08,45.22 L383.73,45.22 L384.39,45.25 L385.04,45.32 L385.70,45.42 L386.36,45.55 L387.02,45.71 L387.68,45.90 L388.34,46.13 L389.00,46.38 L389.66,46.66 L390.32,46.97 L390.98,47.31 L391.64,47.67 L392.30,48.06 L392.95,48.47 L393.61,48.90 L394.26,49.35 L394.91,49.82 L395.55,50.30 L396.20,50.80 L396.84,51.31 L397.48,51.83 L398.11,52.37 L398.74,52.91 L399.37,53.45 L400.00,54.00 L400.62,54.55 L401.24,55.10 L401.86,55.65 L402.48,56.19 L403.09,56.73 L403.69,57.26 L404.30,57.79 L404.90,58.30 L405.50,58.79 L406.10,59.28 L406.70,59.75 L407.29,60.19 L407.89,60.63 L408.48,61.03 L409.07,61.42 L409.65,61.79 L410.24,62.13 L410.83,62.44 L411.42,62.73 L412.01,63.00 L412.59,63.23 L413.18,63.44 L413.77,63.61 L414.36,63.76 L414.95,63.88 L415.55,63.97 L416.14,64.02 L416.74,64.05" fill="none" stroke-width="4.5" stroke-linecap="butt" stroke-linejoin="round" style="stroke:url(#ggArchCord)"/><path d="M451.52,51.13 L452.15,51.27 L452.78,51.44 L453.40,51.64 L454.01,51.87 L454.61,52.13 L455.21,52.41 L455.80,52.73 L456.38,53.07 L456.96,53.44 L457.52,53.84 L458.08,54.26 L458.63,54.71 L459.17,55.17 L459.70,55.66 L460.23,56.17 L460.75,56.70 L461.26,57.24 L461.77,57.80 L462.27,58.38 L462.76,58.97 L463.25,59.57 L463.73,60.18 L464.21,60.79 L464.68,61.42 L465.15,62.05 L465.61,62.68 L466.07,63.32 L466.53,63.96 L466.98,64.59 L467.44,65.23 L467.89,65.85 L468.34,66.48 L468.79,67.09 L469.24,67.70 L469.69,68.30 L470.14,68.89 L470.60,69.46 L471.05,70.03 L471.51,70.57 L471.97,71.10 L472.44,71.62 L472.91,72.12 L473.39,72.59 L473.87,73.05 L474.35,73.49 L474.84,73.91 L475.34,74.31 L475.85,74.69 L476.36,75.04 L476.88,75.38 L477.41,75.69 L477.95,75.98 L478.49,76.25 L479.04,76.49 L479.61,76.71 L480.18,76.91 L480.75,77.09" fill="none" stroke-width="11.5" stroke-linecap="butt" stroke-linejoin="round" style="stroke:#12150F"/><path d="M451.52,51.13 L452.15,51.27 L452.78,51.44 L453.40,51.64 L454.01,51.87 L454.61,52.13 L455.21,52.41 L455.80,52.73 L456.38,53.07 L456.96,53.44 L457.52,53.84 L458.08,54.26 L458.63,54.71 L459.17,55.17 L459.70,55.66 L460.23,56.17 L460.75,56.70 L461.26,57.24 L461.77,57.80 L462.27,58.38 L462.76,58.97 L463.25,59.57 L463.73,60.18 L464.21,60.79 L464.68,61.42 L465.15,62.05 L465.61,62.68 L466.07,63.32 L466.53,63.96 L466.98,64.59 L467.44,65.23 L467.89,65.85 L468.34,66.48 L468.79,67.09 L469.24,67.70 L469.69,68.30 L470.14,68.89 L470.60,69.46 L471.05,70.03 L471.51,70.57 L471.97,71.10 L472.44,71.62 L472.91,72.12 L473.39,72.59 L473.87,73.05 L474.35,73.49 L474.84,73.91 L475.34,74.31 L475.85,74.69 L476.36,75.04 L476.88,75.38 L477.41,75.69 L477.95,75.98 L478.49,76.25 L479.04,76.49 L479.61,76.71 L480.18,76.91 L480.75,77.09" fill="none" stroke-width="4.5" stroke-linecap="butt" stroke-linejoin="round" style="stroke:url(#ggArchCord)"/><path d="M515.51,79.78 L516.05,80.12 L516.58,80.49 L517.09,80.87 L517.60,81.28 L518.10,81.69 L518.58,82.13 L519.06,82.58 L519.52,83.04 L519.98,83.52 L520.42,84.01 L520.86,84.51 L521.29,85.02 L521.71,85.55 L522.12,86.08 L522.53,86.63 L522.92,87.18 L523.31,87.74 L523.70,88.31 L524.08,88.88 L524.45,89.46 L524.82,90.04 L525.19,90.62 L525.55,91.21 L525.91,91.80 L526.27,92.39 L526.62,92.98 L526.98,93.56 L527.33,94.15 L527.69,94.73 L528.04,95.31 L528.40,95.88 L528.76,96.45 L529.12,97.02 L529.48,97.58 L529.84,98.13 L530.21,98.67 L530.59,99.21 L530.96,99.74 L531.35,100.26 L531.73,100.77 L532.13,101.28 L532.53,101.77 L532.93,102.25 L533.34,102.73 L533.76,103.19 L534.19,103.65 L534.62,104.09 L535.06,104.53 L535.51,104.95 L535.96,105.37 L536.43,105.77 L536.89,106.17 L537.37,106.56 L537.86,106.93 L538.35,107.30 L538.85,107.66" fill="none" stroke-width="11.5" stroke-linecap="butt" stroke-linejoin="round" style="stroke:#12150F"/><path d="M515.51,79.78 L516.05,80.12 L516.58,80.49 L517.09,80.87 L517.60,81.28 L518.10,81.69 L518.58,82.13 L519.06,82.58 L519.52,83.04 L519.98,83.52 L520.42,84.01 L520.86,84.51 L521.29,85.02 L521.71,85.55 L522.12,86.08 L522.53,86.63 L522.92,87.18 L523.31,87.74 L523.70,88.31 L524.08,88.88 L524.45,89.46 L524.82,90.04 L525.19,90.62 L525.55,91.21 L525.91,91.80 L526.27,92.39 L526.62,92.98 L526.98,93.56 L527.33,94.15 L527.69,94.73 L528.04,95.31 L528.40,95.88 L528.76,96.45 L529.12,97.02 L529.48,97.58 L529.84,98.13 L530.21,98.67 L530.59,99.21 L530.96,99.74 L531.35,100.26 L531.73,100.77 L532.13,101.28 L532.53,101.77 L532.93,102.25 L533.34,102.73 L533.76,103.19 L534.19,103.65 L534.62,104.09 L535.06,104.53 L535.51,104.95 L535.96,105.37 L536.43,105.77 L536.89,106.17 L537.37,106.56 L537.86,106.93 L538.35,107.30 L538.85,107.66" fill="none" stroke-width="4.5" stroke-linecap="butt" stroke-linejoin="round" style="stroke:url(#ggArchCord)"/></svg>
