<svg xmlns="http://www.w3.org/2000/svg" viewBox="0 0 800 300" width="800" height="300" fill="none"><!-- Gilt & Grove rising-sun halo — generated by the knot engine (consistent two-strand braid + rays) --><defs><linearGradient id="ggArchCord" x1="0" y1="0" x2="1" y2="0"><stop offset="0" stop-color="#90A587"/><stop offset="0.5" stop-color="#CDAA61"/><stop offset="1" stop-color="#90A587"/></linearGradient><linearGradient id="ggRay" x1="0" y1="1" x2="0" y2="0"><stop offset="0" stop-color="#B18A44" stop-opacity="0"/><stop offset="1" stop-color="#CDAA61" stop-opacity="0.55"/></linearGradient></defs><g><line x1="336.90" y1="239.23" x2="198.09" y2="171.52" stroke-width="1.2" style="stroke:url(#ggRay)"/><line x1="343.69" y1="228.08" x2="219.81" y2="135.85" stroke-width="0.7" style="stroke:url(#ggRay)"/><line x1="352.42" y1="218.38" x2="247.75" y2="104.82" stroke-width="1.2" style="stroke:url(#ggRay)"/><line x1="362.80" y1="210.47" x2="280.96" y2="79.49" stroke-width="0.7" style="stroke:url(#ggRay)"/><line x1="374.46" y1="204.61" x2="318.28" y2="60.75" stroke-width="1.2" style="stroke:url(#ggRay)"/><line x1="387.01" y1="201.01" x2="358.42" y2="49.24" stroke-width="0.7" style="stroke:url(#ggRay)"/><line x1="400.00" y1="199.80" x2="400.00" y2="45.36" stroke-width="1.2" style="stroke:url(#ggRay)"/><line x1="412.99" y1="201.01" x2="441.58" y2="49.24" stroke-width="0.7" style="stroke:url(#ggRay)"/><line x1="425.54" y1="204.61" x2="481.72" y2="60.75" stroke-width="1.2" style="stroke:url(#ggRay)"/><line x1="437.20" y1="210.47" x2="519.04" y2="79.49" stroke-width="0.7" style="stroke:url(#ggRay)"/><line x1="447.58" y1="218.38" x2="552.25" y2="104.82" stroke-width="1.2" style="stroke:url(#ggRay)"/><line x1="456.31" y1="228.08" x2="580.19" y2="135.85" stroke-width="0.7" style="stroke:url(#ggRay)"/><line x1="463.10" y1="239.23" x2="601.91" y2="171.52" stroke-width="1.2" style="stroke:url(#ggRay)"/></g><defs><clipPath id="gk05dm63t_0"><path d="M190.84 165.08 L223.54 158.01 L216.01 125.42 L181.32 131.22 Z"/></clipPath><clipPath id="gk05dm63t_1"><path d="M216.01 125.42 L249.46 125.03 L248.59 91.59 L213.44 90.34 Z"/></clipPath><clipPath id="gk05dm63t_2"><path d="M248.59 91.59 L281.44 97.88 L287.27 64.94 L253.08 56.71 Z"/></clipPath><clipPath id="gk05dm63t_3"><path d="M287.27 64.94 L318.2 77.67 L330.49 46.56 L298.63 31.66 Z"/></clipPath><clipPath id="gk05dm63t_4"><path d="M330.49 46.56 L358.26 65.21 L376.52 37.18 L348.28 16.22 Z"/></clipPath><clipPath id="gk05dm63t_5"><path d="M376.52 37.18 L400 61 L423.48 37.18 L400 11 Z"/></clipPath><clipPath id="gk05dm63t_6"><path d="M423.48 37.18 L441.74 65.21 L469.51 46.56 L451.72 16.22 Z"/></clipPath><clipPath id="gk05dm63t_7"><path d="M469.51 46.56 L481.8 77.67 L512.73 64.94 L501.37 31.66 Z"/></clipPath><clipPath id="gk05dm63t_8"><path d="M512.73 64.94 L518.56 97.88 L551.41 91.59 L546.92 56.71 Z"/></clipPath><clipPath id="gk05dm63t_9"><path d="M551.41 91.59 L550.54 125.03 L583.99 125.42 L586.56 90.34 Z"/></clipPath><clipPath id="gk05dm63t_10"><path d="M583.99 125.42 L576.46 158.01 L609.16 165.08 L618.68 131.22 Z"/></clipPath></defs><path d="M185.83 175.72 L197.27 180.76 L202.01 170.68 C205.42 164.17 205.99 157.03 202.43 144.62 C199.54 131.78 201.23 124.21 206.18 117.7 C211.34 111.35 218.29 107.92 231.45 107.69 C244.35 108.21 251.15 105.97 256.68 101.12 C262.36 96.46 265.68 90.11 267.26 77.29 C269.63 64.35 274.15 58.05 281.25 53.99 C288.48 50.17 296.22 49.73 308.42 54.67 C320.08 60.2 327.23 60.8 334.21 58.5 C341.26 56.43 346.8 51.89 353.27 40.71 C360.51 29.73 367.14 25.7 375.26 24.74 C383.41 24.06 390.71 26.68 400 36 C408.57 45.66 414.91 49 422.23 49.62 C429.53 50.48 436.41 48.47 446.73 40.71 C457.7 33.44 465.37 32.33 473.22 34.63 C480.99 37.18 486.67 42.45 491.58 54.67 C495.69 66.91 500.21 72.47 506.71 75.9 C513.09 79.54 520.2 80.39 532.74 77.29 C545.68 74.89 553.18 76.87 559.5 82.06 C565.65 87.45 568.82 94.53 568.55 107.69 C567.54 120.56 569.53 127.44 574.16 133.14 C578.61 139 584.83 142.56 597.57 144.62 C610.42 147.47 616.54 152.23 620.33 159.47 L625.61 170.68 L614.17 175.72 L602.73 180.76 L597.99 170.68 C594.58 164.17 594.01 157.03 597.57 144.62 C600.46 131.78 598.77 124.21 593.82 117.7 C588.66 111.35 581.71 107.92 568.55 107.69 C555.65 108.21 548.85 105.97 543.32 101.12 C537.64 96.46 534.32 90.11 532.74 77.29 C530.37 64.35 525.85 58.05 518.75 53.99 C511.52 50.17 503.78 49.73 491.58 54.67 C479.92 60.2 472.77 60.8 465.79 58.5 C458.74 56.43 453.2 51.89 446.73 40.71 C439.49 29.73 432.86 25.7 424.74 24.74 C416.59 24.06 409.29 26.68 400 36 C391.43 45.66 385.09 49 377.77 49.62 C370.47 50.48 363.59 48.47 353.27 40.71 C342.3 33.44 334.63 32.33 326.78 34.63 C319.01 37.18 313.33 42.45 308.42 54.67 C304.31 66.91 299.79 72.47 293.29 75.9 C286.91 79.54 279.8 80.39 267.26 77.29 C254.32 74.89 246.82 76.87 240.5 82.06 C234.35 87.45 231.18 94.53 231.45 107.69 C232.46 120.56 230.47 127.44 225.84 133.14 C221.39 139 215.17 142.56 202.43 144.62 C189.58 147.47 183.46 152.23 179.67 159.47 L174.39 170.68 L185.83 175.72 Z" fill="none" style="stroke:url(#ggArchCord)" stroke-width="12.5" stroke-linecap="round" stroke-linejoin="round"/><g clip-path="url(#gk05dm63t_0)"><path d="M225.84 133.14 C221.39 139 215.17 142.56 202.43 144.62 C189.58 147.47 183.46 152.23 179.67 159.47" fill="none" style="stroke:#121110" stroke-width="20.25" stroke-linecap="round"/><path d="M225.84 133.14 C221.39 139 215.17 142.56 202.43 144.62 C189.58 147.47 183.46 152.23 179.67 159.47" fill="none" style="stroke:url(#ggArchCord)" stroke-width="12.5" stroke-linecap="round" stroke-linejoin="round"/></g><g clip-path="url(#gk05dm63t_1)"><path d="M206.18 117.7 C211.34 111.35 218.29 107.92 231.45 107.69 C244.35 108.21 251.15 105.97 256.68 101.12" fill="none" style="stroke:#121110" stroke-width="20.25" stroke-linecap="round"/><path d="M206.18 117.7 C211.34 111.35 218.29 107.92 231.45 107.69 C244.35 108.21 251.15 105.97 256.68 101.12" fill="none" style="stroke:url(#ggArchCord)" stroke-width="12.5" stroke-linecap="round" stroke-linejoin="round"/></g><g clip-path="url(#gk05dm63t_2)"><path d="M293.29 75.9 C286.91 79.54 279.8 80.39 267.26 77.29 C254.32 74.89 246.82 76.87 240.5 82.06" fill="none" style="stroke:#121110" stroke-width="20.25" stroke-linecap="round"/><path d="M293.29 75.9 C286.91 79.54 279.8 80.39 267.26 77.29 C254.32 74.89 246.82 76.87 240.5 82.06" fill="none" style="stroke:url(#ggArchCord)" stroke-width="12.5" stroke-linecap="round" stroke-linejoin="round"/></g><g clip-path="url(#gk05dm63t_3)"><path d="M281.25 53.99 C288.48 50.17 296.22 49.73 308.42 54.67 C320.08 60.2 327.23 60.8 334.21 58.5" fill="none" style="stroke:#121110" stroke-width="20.25" stroke-linecap="round"/><path d="M281.25 53.99 C288.48 50.17 296.22 49.73 308.42 54.67 C320.08 60.2 327.23 60.8 334.21 58.5" fill="none" style="stroke:url(#ggArchCord)" stroke-width="12.5" stroke-linecap="round" stroke-linejoin="round"/></g><g clip-path="url(#gk05dm63t_4)"><path d="M377.77 49.62 C370.47 50.48 363.59 48.47 353.27 40.71 C342.3 33.44 334.63 32.33 326.78 34.63" fill="none" style="stroke:#121110" stroke-width="20.25" stroke-linecap="round"/><path d="M377.77 49.62 C370.47 50.48 363.59 48.47 353.27 40.71 C342.3 33.44 334.63 32.33 326.78 34.63" fill="none" style="stroke:url(#ggArchCord)" stroke-width="12.5" stroke-linecap="round" stroke-linejoin="round"/></g><g clip-path="url(#gk05dm63t_5)"><path d="M375.26 24.74 C383.41 24.06 390.71 26.68 400 36 C408.57 45.66 414.91 49 422.23 49.62" fill="none" style="stroke:#121110" stroke-width="20.25" stroke-linecap="round"/><path d="M375.26 24.74 C383.41 24.06 390.71 26.68 400 36 C408.57 45.66 414.91 49 422.23 49.62" fill="none" style="stroke:url(#ggArchCord)" stroke-width="12.5" stroke-linecap="round" stroke-linejoin="round"/></g><g clip-path="url(#gk05dm63t_6)"><path d="M465.79 58.5 C458.74 56.43 453.2 51.89 446.73 40.71 C439.49 29.73 432.86 25.7 424.74 24.74" fill="none" style="stroke:#121110" stroke-width="20.25" stroke-linecap="round"/><path d="M465.79 58.5 C458.74 56.43 453.2 51.89 446.73 40.71 C439.49 29.73 432.86 25.7 424.74 24.74" fill="none" style="stroke:url(#ggArchCord)" stroke-width="12.5" stroke-linecap="round" stroke-linejoin="round"/></g><g clip-path="url(#gk05dm63t_7)"><path d="M473.22 34.63 C480.99 37.18 486.67 42.45 491.58 54.67 C495.69 66.91 500.21 72.47 506.71 75.9" fill="none" style="stroke:#121110" stroke-width="20.25" stroke-linecap="round"/><path d="M473.22 34.63 C480.99 37.18 486.67 42.45 491.58 54.67 C495.69 66.91 500.21 72.47 506.71 75.9" fill="none" style="stroke:url(#ggArchCord)" stroke-width="12.5" stroke-linecap="round" stroke-linejoin="round"/></g><g clip-path="url(#gk05dm63t_8)"><path d="M543.32 101.12 C537.64 96.46 534.32 90.11 532.74 77.29 C530.37 64.35 525.85 58.05 518.75 53.99" fill="none" style="stroke:#121110" stroke-width="20.25" stroke-linecap="round"/><path d="M543.32 101.12 C537.64 96.46 534.32 90.11 532.74 77.29 C530.37 64.35 525.85 58.05 518.75 53.99" fill="none" style="stroke:url(#ggArchCord)" stroke-width="12.5" stroke-linecap="round" stroke-linejoin="round"/></g><g clip-path="url(#gk05dm63t_9)"><path d="M559.5 82.06 C565.65 87.45 568.82 94.53 568.55 107.69 C567.54 120.56 569.53 127.44 574.16 133.14" fill="none" style="stroke:#121110" stroke-width="20.25" stroke-linecap="round"/><path d="M559.5 82.06 C565.65 87.45 568.82 94.53 568.55 107.69 C567.54 120.56 569.53 127.44 574.16 133.14" fill="none" style="stroke:url(#ggArchCord)" stroke-width="12.5" stroke-linecap="round" stroke-linejoin="round"/></g><g clip-path="url(#gk05dm63t_10)"><path d="M597.99 170.68 C594.58 164.17 594.01 157.03 597.57 144.62 C600.46 131.78 598.77 124.21 593.82 117.7" fill="none" style="stroke:#121110" stroke-width="20.25" stroke-linecap="round"/><path d="M597.99 170.68 C594.58 164.17 594.01 157.03 597.57 144.62 C600.46 131.78 598.77 124.21 593.82 117.7" fill="none" style="stroke:url(#ggArchCord)" stroke-width="12.5" stroke-linecap="round" stroke-linejoin="round"/></g></svg>
